#N canvas 844 234 515 415 16;
#X obj 218 127 vorpal_bus \$0;
#X obj 217 84 catch~ \$0-out;
#X obj 412 52 loadbang;
#N canvas 102 137 889 773 drums 0;
#X obj 29 79 metro 4000;
#X obj 56 109 r \$0-which;
#X obj 326 664 s \$0-which;
#N canvas 85 161 567 715 intro 0;
#X obj 16 17 inlet bang;
#X msg 16 335 start;
#X obj 16 364 vorpal_sample samples/WDR_btra_intro01M.wav;
#X msg 64 189 start;
#X obj 64 218 vorpal_sample samples/WDR_btra_intro03M.wav;
#X obj 16 129 select 0 1;
#X obj 16 75 random 2;
#X obj 64 273 throw~ \$0-drums;
#X obj 16 419 throw~ \$0-drums;
#X connect 0 0 6 0;
#X connect 1 0 2 0;
#X connect 2 0 8 0;
#X connect 3 0 4 0;
#X connect 4 0 7 0;
#X connect 5 0 1 0;
#X connect 5 1 3 0;
#X connect 6 0 5 0;
#X restore 92 397 pd intro;
#X obj 29 137 i 0;
#N canvas 3 99 667 615 beat 0;
#X obj 90 47 inlet bang;
#X obj 90 511 vorpal_sample samples/WDR_btra_beat02M.wav;
#X obj 121 411 vorpal_sample samples/WDR_btra_chorus02M.wav;
#X obj 153 321 vorpal_sample samples/WDR_btra_funk02M.wav;
#X obj 90 162 pack 0 s;
#X obj 255 89 loadbang;
#X msg 255 117 symbol start;
#X obj 153 376 throw~ \$0-drums;
#X obj 121 466 throw~ \$0-drums;
#X obj 90 566 throw~ \$0-drums;
#X obj 90 107 i 0;
#X obj 255 40 inlet which;
#X obj 217 230 vorpal_sample samples/WDR_btra_soloM.wav;
#X obj 90 196 route 0 1 2 3;
#X obj 216 285 throw~ \$0-drums;
#X connect 0 0 10 0;
#X connect 1 0 9 0;
#X connect 2 0 8 0;
#X connect 3 0 7 0;
#X connect 4 0 13 0;
#X connect 5 0 6 0;
#X connect 6 0 4 1;
#X connect 10 0 4 0;
#X connect 11 0 10 1;
#X connect 12 0 14 0;
#X connect 13 0 1 0;
#X connect 13 1 2 0;
#X connect 13 2 3 0;
#X connect 13 4 12 0;
#X restore 124 276 pd beat;
#X obj 551 467 catch~ \$0-drums;
#X obj 551 693 throw~ \$0-out;
#X obj 92 307 t b b;
#X obj 139 369 s \$0-which;
#X obj 564 240 vorpal_parameter \$0 drum-stopped;
#X obj 29 33 vorpal_parameter \$0 drum-start;
#X obj 326 346 vorpal_parameter \$0 drum-moving;
#X msg 564 281 0;
#X obj 564 309 s \$0-which;
#X obj 191 192 vorpal_parameter \$0 drum-dir;
#X obj 29 194 route 0 1 2 3;
#X msg 326 581 2;
#X msg 139 341 3;
#X msg 58 568 1;
#X obj 58 596 s \$0-which;
#N canvas 85 170 567 213 crash 0;
#X obj 16 17 inlet bang;
#X msg 16 50 start;
#X obj 16 134 throw~ \$0-drums;
#X obj 16 78 vorpal_sample samples/WDR_btra_crashM.wav;
#X connect 0 0 1 0;
#X connect 1 0 3 0;
#X connect 3 0 2 0;
#X restore 29 627 pd crash;
#N canvas 85 164 472 289 hihat 0;
#X obj 16 17 inlet bang;
#X msg 16 109 start;
#X obj 16 193 throw~ \$0-drums;
#X obj 16 137 vorpal_sample samples/WDR_btra_hihatM.wav;
#X connect 0 0 1 0;
#X connect 1 0 3 0;
#X connect 3 0 2 0;
#X restore 60 447 pd hihat;
#X msg 393 580 3;
#X obj 326 497 i 2;
#X obj 353 406 r \$0-last;
#X obj 29 486 t b b b b;
#X obj 437 664 s \$0-last;
#X msg 116 518 0;
#X obj 116 546 s \$0-last;
#X obj 326 531 moses 2;
#X obj 613 518 vorpal_parameter \$0 drum-end;
#X msg 613 559 0 100;
#X obj 613 587 line;
#X obj 551 665 *~ 0.7;
#X connect 0 0 4 0;
#X connect 1 0 4 1;
#X connect 4 0 16 0;
#X connect 6 0 34 0;
#X connect 8 0 3 0;
#X connect 8 1 18 0;
#X connect 10 0 13 0;
#X connect 11 0 0 0;
#X connect 12 0 24 0;
#X connect 13 0 14 0;
#X connect 15 0 5 1;
#X connect 16 0 26 0;
#X connect 16 1 22 0;
#X connect 16 2 8 0;
#X connect 16 3 5 0;
#X connect 17 0 2 0;
#X connect 17 0 27 0;
#X connect 18 0 9 0;
#X connect 19 0 20 0;
#X connect 23 0 2 0;
#X connect 23 0 27 0;
#X connect 24 0 30 0;
#X connect 25 0 24 1;
#X connect 26 0 21 0;
#X connect 26 1 19 0;
#X connect 26 2 22 0;
#X connect 26 3 28 0;
#X connect 28 0 29 0;
#X connect 30 0 17 0;
#X connect 30 1 23 0;
#X connect 31 0 32 0;
#X connect 32 0 33 0;
#X connect 33 0 34 1;
#X connect 34 0 7 0;
#X restore 51 182 pd drums;
#N canvas 671 435 552 596 noise 0;
#X obj 40 10 noise~;
#X obj 83 216 +~ 40;
#X obj 131 248 hsl 128 15 0.01 1 0 1 empty empty empty -2 -8 0 10 -262144
-1 -1 12200 1;
#X obj 86 112 hsl 128 15 0 1 0 1 empty empty empty -2 -8 0 10 -262144
-1 -1 2300 1;
#X obj 133 162 hsl 128 15 0 50 0 1 empty empty empty -2 -8 0 10 -262144
-1 -1 8500 1;
#X obj 83 131 osc~ 0.2;
#X obj 41 273 vcf~ 0.95;
#X obj 40 530 throw~ \$0-null;
#X obj 70 465 pack s \$0;
#X msg 70 492 set \$2-\$1;
#X obj 40 379 *~ 0;
#X obj 77 347 line;
#X obj 78 320 r \$0-noise-vol;
#X obj 282 122 vorpal_parameter \$0 noise-start;
#X obj 282 163 t b b;
#X obj 329 220 s \$0-noise-vol;
#X obj 70 436 r \$0-noise-route;
#X msg 282 228 out;
#X obj 282 256 s \$0-noise-route;
#X obj 282 333 t b b;
#X obj 329 390 s \$0-noise-vol;
#X obj 282 486 s \$0-noise-route;
#X msg 282 458 null;
#X obj 83 186 *~ 20;
#X msg 291 19 test;
#X obj 291 47 s \$0-noise-route;
#X obj 282 289 vorpal_parameter \$0 noise-stop;
#X msg 329 362 0 2000;
#X obj 282 421 delay 2000;
#X msg 329 192 0.1 500;
#X connect 0 0 6 0;
#X connect 1 0 6 1;
#X connect 2 0 6 2;
#X connect 3 0 5 0;
#X connect 5 0 23 0;
#X connect 6 0 10 0;
#X connect 6 1 10 0;
#X connect 8 0 9 0;
#X connect 9 0 7 0;
#X connect 10 0 7 0;
#X connect 11 0 10 1;
#X connect 12 0 11 0;
#X connect 13 0 14 0;
#X connect 14 0 17 0;
#X connect 14 1 29 0;
#X connect 16 0 8 0;
#X connect 17 0 18 0;
#X connect 19 0 28 0;
#X connect 19 1 27 0;
#X connect 22 0 21 0;
#X connect 23 0 1 0;
#X connect 24 0 25 0;
#X connect 26 0 19 0;
#X connect 27 0 20 0;
#X connect 28 0 22 0;
#X connect 29 0 15 0;
#X restore 49 143 pd noise;
#X obj 246 225 catch~ \$0-test;
#X obj 246 293 dac~;
#X obj 59 328 catch~ \$0-null;
#X msg 412 80 0.8;
#N canvas 3 157 1408 519 beat 1;
#X obj 104 152 vorpal_metro;
#X obj 104 80 loadbang;
#N canvas 3 127 1195 931 bumbo 0;
#X obj 68 455 vorpal_osc;
#X obj 104 223 vorpal_seq16;
#X obj 104 306 mtof;
#X obj 104 334 t b f;
#X obj 450 511 vorpal_env;
#X obj 104 422 s \$0-trig;
#X obj 450 455 r \$0-trig;
#X msg 450 483 on;
#X obj 789 618 *~;
#X obj 449 818 send~ \$0-env;
#X obj 68 762 throw~ \$0-osc;
#X obj 817 478 catch~ \$0-osc;
#X obj 151 368 s \$0-freq;
#X obj 790 448 receive~ \$0-env;
#X obj 816 586 bp~;
#X obj 829 511 r \$0-freq;
#X msg 845 549 0.45;
#X obj 383 286 r \$0-freq;
#X msg 383 314 freq \$1;
#X obj 621 12 loadbang;
#X obj 396 350 loadbang;
#X obj 745 389 loadbang;
#X obj 788 845 throw~ \$0-null;
#X obj 818 780 pack s \$0;
#X msg 818 807 set \$2-\$1;
#X obj 818 751 r \$0-beats-route;
#X msg 995 509 out;
#X obj 995 597 s \$0-beats-route;
#X msg 1006 537 test;
#X msg 1022 568 null;
#X obj 789 718 *~;
#X obj 816 687 line;
#X obj 816 652 r \$0-beats-vol;
#X obj 383 114 s \$0-beats-vol;
#X obj 336 175 s \$0-beats-route;
#X msg 336 147 out;
#X obj 857 279 t b b;
#X obj 984 334 s \$0-beats-vol;
#X obj 857 368 s \$0-beats-route;
#X msg 857 340 null;
#X obj 857 236 vorpal_parameter \$0 beat-stop;
#X obj 336 56 t b b;
#X msg 383 86 1 500;
#X msg 697 132 3 1 \, 10 1 \, 11 1;
#X msg 877 192 3 0 \, 10 0 \, 11 0;
#X msg 621 44 0 1 \, 4 1 \, 8 1 \, 12 1 \, bang;
#X obj 697 88 vorpal_parameter \$0 beat-inc;
#X obj 877 150 vorpal_parameter \$0 beat-dec;
#X obj 104 185 inlet;
#X msg 745 416 atk 1 \, del 80 \, sus 0.56 \, rel 330 \, auto 1;
#X msg 104 278 60;
#X msg 396 390 rng 8 \, osc 8 \, shape 0 \, vol 0.4;
#X obj 336 20 r beat-start;
#X obj 857 309 delay 20000;
#X msg 984 306 0 20000;
#X connect 0 0 10 0;
#X connect 1 0 50 0;
#X connect 2 0 3 0;
#X connect 3 0 5 0;
#X connect 3 1 12 0;
#X connect 4 0 9 0;
#X connect 6 0 7 0;
#X connect 7 0 4 0;
#X connect 8 0 30 0;
#X connect 11 0 14 0;
#X connect 13 0 8 0;
#X connect 14 0 8 1;
#X connect 15 0 14 1;
#X connect 16 0 14 2;
#X connect 17 0 18 0;
#X connect 18 0 0 2;
#X connect 19 0 45 0;
#X connect 20 0 51 0;
#X connect 21 0 49 0;
#X connect 23 0 24 0;
#X connect 24 0 22 0;
#X connect 25 0 23 0;
#X connect 26 0 27 0;
#X connect 28 0 27 0;
#X connect 29 0 27 0;
#X connect 30 0 22 0;
#X connect 31 0 30 1;
#X connect 32 0 31 0;
#X connect 35 0 34 0;
#X connect 36 0 53 0;
#X connect 36 1 54 0;
#X connect 39 0 38 0;
#X connect 40 0 36 0;
#X connect 41 0 35 0;
#X connect 41 1 42 0;
#X connect 42 0 33 0;
#X connect 43 0 1 1;
#X connect 44 0 1 1;
#X connect 45 0 1 1;
#X connect 46 0 43 0;
#X connect 47 0 44 0;
#X connect 48 0 1 0;
#X connect 49 0 4 1;
#X connect 50 0 2 0;
#X connect 51 0 0 2;
#X connect 52 0 41 0;
#X connect 53 0 39 0;
#X connect 54 0 37 0;
#X restore 100 393 pd bumbo;
#N canvas 164 130 1118 901 hihat 0;
#X obj 31 164 vorpal_seq16;
#X obj 493 404 vorpal_filter;
#X obj 158 288 vorpal_env;
#X msg 31 219 on;
#X obj 304 761 *~;
#X msg 668 373 freq 3500 \, offset 3 \, emph 9.43;
#X obj 552 323 osc~ 2;
#X obj 552 351 *~ 1000;
#X obj 31 122 inlet;
#X obj 492 288 noise~;
#X msg 624 129 0 1 \, 2 1 \, 4 1 \, 6 1 \, 8 1 \, 10 1 \, 12 1 \, 14
1 \, bang;
#X obj 303 844 throw~ \$0-out;
#X obj 453 230 loadbang;
#X obj 668 346 loadbang;
#X obj 624 101 loadbang;
#X obj 304 809 *~;
#X obj 730 805 line;
#X msg 453 259 auto 1 \, atk 1 \, del 2000 \, sus 1 \, rel 15;
#X msg 730 667 0.1 100;
#X obj 802 698 vorpal_parameter \$0 beat-stop;
#X obj 730 617 r hihat-start;
#X msg 802 753 0 20000;
#X connect 0 0 3 0;
#X connect 1 0 4 1;
#X connect 2 0 1 2;
#X connect 2 0 4 0;
#X connect 3 0 2 0;
#X connect 4 0 15 0;
#X connect 5 0 1 3;
#X connect 6 0 7 0;
#X connect 7 0 1 1;
#X connect 8 0 0 0;
#X connect 9 0 1 0;
#X connect 10 0 0 1;
#X connect 12 0 17 0;
#X connect 13 0 5 0;
#X connect 14 0 10 0;
#X connect 15 0 11 0;
#X connect 16 0 15 1;
#X connect 17 0 2 1;
#X connect 18 0 16 0;
#X connect 19 0 21 0;
#X connect 20 0 18 0;
#X connect 21 0 16 0;
#X restore 244 399 pd hihat;
#N canvas 3 120 1789 956 melody 0;
#X obj 48 356 vorpal_osc;
#X obj 429 382 vorpal_env;
#X obj 908 90 vorpal_env;
#X obj 795 535 vorpal_filter;
#X obj 1061 419 hsl 128 15 0 1 0 1 empty empty empty -2 -8 0 10 -262144
-1 -1 10900 1;
#X obj 646 752 *~;
#X msg 697 234 on;
#X obj 40 151 vorpal_seq16;
#X obj 792 415 sig~ 1;
#X msg 461 286 auto 1 \, atk 10 \, del 200 \, sus 0 \, rel 300;
#X obj 40 50 inlet;
#X obj 70 284 r \$0-melody-tone;
#X obj 144 902 s \$0-melody-tone;
#X msg 70 310 freq \$1;
#X obj 87 105 s \$0-melody-idx;
#X obj 144 711 r \$0-melody-idx;
#X obj 144 862 mtof;
#X obj 114 224 loadbang;
#X obj 724 320 r \$0-melody-tone;
#X msg 724 346 freq \$1;
#X msg 988 492 offset -2 \, q 5;
#X msg 281 118 1;
#X msg 1336 117 0;
#X obj 797 7 loadbang;
#X obj 575 249 loadbang;
#X obj 402 61 loadbang;
#X obj 1098 450 loadbang;
#X obj 791 459 expr~ $v2*$f3 + $v1*(1-$f3);
#X obj 40 78 t f f;
#X msg 114 255 rng 1 \, shape 0 \, vol 0.8 \, osc 0;
#X obj 648 913 throw~ \$0-out;
#X obj 1334 31 vorpal_parameter \$0 beat-stop;
#X obj 621 93 r \$0-melody-mode;
#X msg 144 802 48;
#X msg 197 805 60;
#X msg 251 808 51;
#X msg 414 803 58;
#X msg 466 807 41;
#X msg 525 809 53;
#X msg 307 807 63;
#X msg 362 804 46;
#X msg 797 36 auto 1 \, atk 20 \, del 120 \, sus 0 \, rel 100;
#X obj 144 769 route 0 1 2 3 4 5 6 7, f 44;
#X obj 144 739 % 8;
#X msg 402 90 0 1 \, 1 1 \, 8 1 \, 9 1;
#X obj 251 21 r melody-start;
#X obj 647 788 *~ 0.6;
#X obj 1088 562 vorpal_parameter \$0 beat-inc;
#X obj 1088 651 s \$0-melody-mode;
#X obj 1088 699 vorpal_parameter \$0 beat-dec;
#X obj 1088 791 s \$0-melody-mode;
#X msg 1088 603 2 1 \, 3 1 \, 4 1 \, 5 1 \, 6 1 \, 7 1 \, 10 1 \, 11
1 \, 12 1 \, 13 1 \, 14 1 \, 15 1;
#X msg 1088 743 2 0 \, 3 0 \, 4 0 \, 5 0 \, 6 0 \, 7 0 \, 10 0 \, 11
0 \, 12 0 \, 13 0 \, 14 0 \, 15 0;
#X obj 1334 72 delay 19000;
#X connect 0 0 3 0;
#X connect 1 0 5 0;
#X connect 2 0 27 1;
#X connect 3 0 5 1;
#X connect 4 0 27 2;
#X connect 5 0 46 0;
#X connect 6 0 1 0;
#X connect 6 0 2 0;
#X connect 7 0 6 0;
#X connect 8 0 27 0;
#X connect 9 0 1 1;
#X connect 10 0 28 0;
#X connect 11 0 13 0;
#X connect 13 0 0 2;
#X connect 15 0 43 0;
#X connect 16 0 12 0;
#X connect 17 0 29 0;
#X connect 18 0 19 0;
#X connect 19 0 1 1;
#X connect 20 0 3 3;
#X connect 21 0 7 1;
#X connect 22 0 7 1;
#X connect 23 0 41 0;
#X connect 24 0 9 0;
#X connect 25 0 44 0;
#X connect 26 0 20 0;
#X connect 27 0 3 2;
#X connect 28 0 7 0;
#X connect 28 1 14 0;
#X connect 29 0 0 2;
#X connect 31 0 53 0;
#X connect 32 0 7 1;
#X connect 33 0 16 0;
#X connect 34 0 16 0;
#X connect 35 0 16 0;
#X connect 36 0 16 0;
#X connect 37 0 16 0;
#X connect 38 0 16 0;
#X connect 39 0 16 0;
#X connect 40 0 16 0;
#X connect 41 0 2 1;
#X connect 42 0 33 0;
#X connect 42 1 34 0;
#X connect 42 2 35 0;
#X connect 42 3 39 0;
#X connect 42 4 40 0;
#X connect 42 5 36 0;
#X connect 42 6 37 0;
#X connect 42 7 38 0;
#X connect 43 0 42 0;
#X connect 44 0 7 1;
#X connect 45 0 21 0;
#X connect 46 0 30 0;
#X connect 47 0 51 0;
#X connect 49 0 52 0;
#X connect 51 0 48 0;
#X connect 52 0 50 0;
#X connect 53 0 22 0;
#X restore 340 341 pd melody;
#X msg 104 117 bpm 144 \, time 16 \, 1;
#N canvas 713 126 757 729 loop 1;
#X obj 140 410 vorpal_sample samples/LoopMono144BPM.wav;
#X msg 143 361 start;
#X obj 131 89 inlet metro;
#X obj 131 117 route 0;
#X obj 423 175 vorpal_parameter \$0 beat-stop;
#X obj 140 525 throw~ \$0-out;
#X obj 131 195 i 0;
#X obj 183 196 + 1;
#X obj 131 223 % 2;
#X obj 131 251 route 0;
#X obj 303 92 r loop-start;
#X obj 304 195 line;
#X obj 140 495 *~;
#X obj 423 273 line;
#X msg 304 167 1.2 100;
#X obj 423 216 delay 18000;
#X msg 423 245 0 2000;
#X connect 0 0 12 0;
#X connect 1 0 0 0;
#X connect 2 0 3 0;
#X connect 3 0 6 0;
#X connect 4 0 15 0;
#X connect 6 0 7 0;
#X connect 6 0 8 0;
#X connect 7 0 6 1;
#X connect 8 0 9 0;
#X connect 9 0 1 0;
#X connect 10 0 14 0;
#X connect 11 0 12 1;
#X connect 12 0 5 0;
#X connect 13 0 12 1;
#X connect 14 0 11 0;
#X connect 15 0 16 0;
#X connect 16 0 13 0;
#X restore 335 253 pd loop;
#X obj 472 147 vorpal_parameter \$0 total-rescued;
#X obj 472 188 route 0 1 2 3 4;
#X obj 472 400 s beat-start;
#X obj 501 368 s hihat-start;
#X obj 530 329 s melody-start;
#X obj 560 292 s acc-start;
#X obj 589 258 s loop-start;
#X obj 770 151 vorpal_parameter \$0 beat-inc;
#X obj 770 240 s \$0-melody-mode;
#X obj 770 288 vorpal_parameter \$0 beat-dec;
#X obj 770 380 s \$0-melody-mode;
#X msg 770 192 2 1 \, 3 1 \, 4 1 \, 5 1 \, 6 1 \, 7 1 \, 10 1 \, 11
1 \, 12 1 \, 13 1 \, 14 1 \, 15 1;
#X msg 770 332 2 0 \, 3 0 \, 4 0 \, 5 0 \, 6 0 \, 7 0 \, 10 0 \, 11
0 \, 12 0 \, 13 0 \, 14 0 \, 15 0;
#N canvas 183 116 1619 956 acc 0;
#X obj 48 356 vorpal_osc;
#X obj 429 382 vorpal_env;
#X obj 908 90 vorpal_env;
#X obj 795 535 vorpal_filter;
#X obj 1061 419 hsl 128 15 0 1 0 1 empty empty empty -2 -8 0 10 -262144
-1 -1 10900 1;
#X obj 646 752 *~;
#X msg 697 234 on;
#X obj 40 151 vorpal_seq16;
#X obj 792 415 sig~ 1;
#X msg 461 286 auto 1 \, atk 10 \, del 200 \, sus 0 \, rel 300;
#X obj 40 50 inlet;
#X msg 70 310 freq \$1;
#X obj 114 224 loadbang;
#X msg 724 346 freq \$1;
#X msg 988 492 offset -2 \, q 5;
#X msg 281 118 1;
#X msg 1277 100 0;
#X obj 797 7 loadbang;
#X obj 575 249 loadbang;
#X obj 402 61 loadbang;
#X obj 1098 450 loadbang;
#X obj 791 459 expr~ $v2*$f3 + $v1*(1-$f3);
#X obj 40 78 t f f;
#X msg 114 255 rng 1 \, shape 0 \, vol 0.8 \, osc 0;
#X obj 648 913 throw~ \$0-out;
#X obj 1265 15 vorpal_parameter \$0 beat-stop;
#X msg 144 802 48;
#X msg 197 805 60;
#X msg 251 808 51;
#X msg 414 803 58;
#X msg 466 807 41;
#X msg 525 809 53;
#X msg 307 807 63;
#X msg 362 804 46;
#X obj 144 769 route 0 1 2 3 4 5 6 7, f 44;
#X obj 144 739 % 8;
#X msg 402 90 0 1 \, 1 1 \, 8 1 \, 9 1;
#X obj 251 21 r acc-start;
#X obj 87 105 s \$0-acc-idx;
#X obj 144 711 r \$0-acc-idx;
#X obj 144 881 mtof;
#X obj 144 910 s \$0-acc-tone;
#X obj 724 320 r \$0-acc-tone;
#X obj 70 284 r \$0-acc-tone;
#X obj 144 852 + 19;
#X obj 647 788 *~ 0.3;
#X msg 797 36 auto 1 \, atk 20 \, del 240 \, sus 0 \, rel 100;
#X obj 1014 570 vorpal_parameter \$0 beat-inc;
#X obj 1014 707 vorpal_parameter \$0 beat-dec;
#X obj 1014 659 s \$0-acc-mode;
#X obj 1014 799 s \$0-acc-mode;
#X obj 621 93 r \$0-acc-mode;
#X msg 1014 611 2 1 \, 4 1 \, 6 1 \, 10 1 \, 12 1 \, 14 1;
#X msg 1014 751 2 0 \, 4 0 \, 6 0 \, 10 0 \, 12 0 \, 14 0;
#X obj 1265 56 delay 18000;
#X connect 0 0 3 0;
#X connect 1 0 5 0;
#X connect 2 0 21 1;
#X connect 3 0 5 1;
#X connect 4 0 21 2;
#X connect 5 0 45 0;
#X connect 6 0 1 0;
#X connect 6 0 2 0;
#X connect 7 0 6 0;
#X connect 8 0 21 0;
#X connect 9 0 1 1;
#X connect 10 0 22 0;
#X connect 11 0 0 2;
#X connect 12 0 23 0;
#X connect 13 0 1 1;
#X connect 14 0 3 3;
#X connect 15 0 7 1;
#X connect 16 0 7 1;
#X connect 17 0 46 0;
#X connect 18 0 9 0;
#X connect 19 0 36 0;
#X connect 20 0 14 0;
#X connect 21 0 3 2;
#X connect 22 0 7 0;
#X connect 22 1 38 0;
#X connect 23 0 0 2;
#X connect 25 0 54 0;
#X connect 26 0 44 0;
#X connect 27 0 44 0;
#X connect 28 0 44 0;
#X connect 29 0 44 0;
#X connect 30 0 44 0;
#X connect 31 0 44 0;
#X connect 32 0 44 0;
#X connect 33 0 44 0;
#X connect 34 0 26 0;
#X connect 34 2 28 0;
#X connect 34 4 33 0;
#X connect 34 6 30 0;
#X connect 35 0 34 0;
#X connect 36 0 7 1;
#X connect 37 0 15 0;
#X connect 39 0 35 0;
#X connect 40 0 41 0;
#X connect 42 0 13 0;
#X connect 43 0 11 0;
#X connect 44 0 40 0;
#X connect 45 0 24 0;
#X connect 46 0 2 1;
#X connect 47 0 52 0;
#X connect 48 0 53 0;
#X connect 51 0 7 1;
#X connect 52 0 49 0;
#X connect 53 0 50 0;
#X connect 54 0 16 0;
#X restore 340 371 pd acc;
#X connect 0 0 2 0;
#X connect 0 0 3 0;
#X connect 0 0 4 0;
#X connect 0 0 6 0;
#X connect 0 0 20 0;
#X connect 1 0 5 0;
#X connect 5 0 0 0;
#X connect 7 0 8 0;
#X connect 8 0 9 0;
#X connect 8 1 10 0;
#X connect 8 2 11 0;
#X connect 8 3 12 0;
#X connect 8 4 13 0;
#X connect 14 0 18 0;
#X connect 16 0 19 0;
#X connect 18 0 15 0;
#X connect 19 0 17 0;
#X restore 52 231 pd beat;
#N canvas 206 245 1098 596 blackhole 0;
#X obj 129 144 vorpal_sample samples/BuracoNegro_01.wav;
#X obj 121 264 vorpal_sample samples/BuracoNegro_01B.wav;
#X obj 53 62 vorpal_parameter \$0 blackhole-start;
#X msg 53 103 start;
#X obj 129 199 *~ 0.8;
#X obj 129 227 throw~ \$0-out;
#X obj 121 319 *~ 0.8;
#X obj 121 347 throw~ \$0-out;
#X obj 637 134 vorpal_sample samples/CRAZY.wav;
#X obj 626 354 *~ 0.6;
#X obj 696 298 delwrite~ \$0-blackhole 1024;
#X obj 691 223 delread~ \$0-blackhole 300;
#X obj 699 255 *~ 0.2;
#X obj 626 382 throw~ \$0-out;
#X obj 567 68 delay 10000;
#X msg 567 96 start;
#X connect 0 0 4 0;
#X connect 1 0 6 0;
#X connect 2 0 3 0;
#X connect 2 0 14 0;
#X connect 3 0 0 0;
#X connect 3 0 1 0;
#X connect 4 0 5 0;
#X connect 6 0 7 0;
#X connect 8 0 9 0;
#X connect 8 0 10 0;
#X connect 9 0 13 0;
#X connect 11 0 9 0;
#X connect 11 0 12 0;
#X connect 12 0 10 0;
#X connect 14 0 15 0;
#X connect 15 0 8 0;
#X restore 49 274 pd blackhole;
#N canvas 82 114 817 829 welcome 0;
#X obj 140 60 vorpal_parameter \$0 welcome-start;
#X msg 227 153 start;
#X obj 227 181 vorpal_sample samples/wake_up_01.wav;
#X obj 227 236 throw~ \$0-out;
#X msg 198 295 start;
#X obj 198 406 throw~ \$0-out;
#X msg 169 468 start;
#X obj 169 581 throw~ \$0-out;
#X obj 198 267 delay 3000;
#X obj 169 440 delay 6000;
#X obj 140 101 t b b b b;
#X obj 140 621 delay 9000;
#X msg 140 649 start;
#X obj 140 677 vorpal_sample samples/01_SD_EN_FIND.wav;
#X obj 140 772 throw~ \$0-out;
#X obj 198 376 *~ 0.5;
#X obj 169 551 *~ 0.5;
#X obj 140 732 *~ 0.5;
#X obj 198 322 vorpal_sample samples/05_SD_EN_welcome2D.wav;
#X obj 169 496 vorpal_sample samples/04_SD_EN_dificulttoleave.wav;
#X connect 0 0 10 0;
#X connect 1 0 2 0;
#X connect 2 0 3 0;
#X connect 4 0 18 0;
#X connect 6 0 19 0;
#X connect 8 0 4 0;
#X connect 9 0 6 0;
#X connect 10 0 11 0;
#X connect 10 1 9 0;
#X connect 10 2 8 0;
#X connect 11 0 12 0;
#X connect 12 0 13 0;
#X connect 13 0 17 0;
#X connect 15 0 5 0;
#X connect 16 0 7 0;
#X connect 17 0 14 0;
#X connect 18 0 15 0;
#X connect 19 0 16 0;
#X restore 44 109 pd welcome;
#X connect 1 0 0 0;
#X connect 2 0 8 0;
#X connect 5 0 6 0;
#X connect 5 0 6 1;
#X connect 8 0 0 1;
