#N canvas 475 210 797 705 16;
#X obj 75 75 vorpal_parameter \$0 play;
#X obj 420 595 vorpal_bus \$0;
#X obj 614 501 loadbang;
#X obj 74 483 rev2~ 100 80 2000 20;
#X obj 122 201 vorpal_sample samples/Wdr_FX_Glide02.wav;
#X obj 75 422 vorpal_sample samples/Wdr_FX_PortaSolo.wav;
#X obj 75 144 t b b;
#X msg 122 172 start;
#X msg 75 388 start;
#X obj 122 306 throw~ \$0-out;
#X obj 74 511 throw~ \$0-out;
#X obj 421 549 catch~ \$0-out;
#X obj 122 256 *~ 1.2;
#X obj 75 360 delay 600;
#X msg 614 529 0.6;
#X connect 0 0 6 0;
#X connect 2 0 14 0;
#X connect 3 0 10 0;
#X connect 3 1 10 0;
#X connect 4 0 12 0;
#X connect 5 0 3 0;
#X connect 6 0 13 0;
#X connect 6 1 7 0;
#X connect 7 0 4 0;
#X connect 8 0 5 0;
#X connect 11 0 1 0;
#X connect 12 0 9 0;
#X connect 13 0 8 0;
#X connect 14 0 1 1;
