#N canvas 734 298 882 676 16;
#X obj 66 460 catch~ \$0-out;
#X obj 66 518 vorpal_bus \$0;
#X obj 260 453 loadbang;
#X obj 291 23 vorpal_parameter \$0 start;
#X obj 326 213 delay 700;
#X obj 338 110 delay 1300;
#N canvas 376 183 838 652 voice 0;
#X obj 167 190 vorpal_sample samples/06_SD_EN_welcome2kaos.wav;
#X obj 120 391 vorpal_sample samples/03_SD_EN_thereisnoexit.wav;
#X obj 120 109 t b b;
#X msg 167 159 start;
#X msg 120 347 start;
#X obj 120 35 vorpal_parameter \$0 start;
#X obj 167 274 throw~ \$0-out;
#X obj 120 446 *~ 0.5;
#X obj 120 475 throw~ \$0-out;
#X obj 120 318 delay 6000;
#X obj 120 80 delay 2000;
#X obj 167 245 *~ 0.6;
#X connect 0 0 11 0;
#X connect 1 0 7 0;
#X connect 2 0 9 0;
#X connect 2 1 3 0;
#X connect 3 0 0 0;
#X connect 4 0 1 0;
#X connect 5 0 10 0;
#X connect 7 0 8 0;
#X connect 9 0 4 0;
#X connect 10 0 2 0;
#X connect 11 0 6 0;
#X restore 604 177 pd voice;
#X obj 44 363 noise-eq 11 96 \$0;
#X obj 44 393 noise-eq 12 104 \$0;
#X obj 44 333 noise-eq 10 88 \$0;
#X obj 44 63 noise-eq 1 16 \$0;
#X obj 44 93 noise-eq 2 24 \$0;
#X obj 44 123 noise-eq 3 32 \$0;
#X obj 44 153 noise-eq 4 40 \$0;
#X obj 44 183 noise-eq 5 48 \$0;
#X obj 44 213 noise-eq 6 56 \$0;
#X obj 44 243 noise-eq 7 64 \$0;
#X obj 44 273 noise-eq 8 72 \$0;
#X obj 44 303 noise-eq 9 80 \$0;
#X obj 315 319 noise-dancer \$0 8001 1000;
#X obj 285 349 noise-dancer \$0 1337 2000;
#X obj 345 289 noise-dancer \$0 1.23123e+08 200;
#X msg 260 482 0.6;
#X connect 0 0 1 0;
#X connect 2 0 22 0;
#X connect 3 0 4 0;
#X connect 3 0 5 0;
#X connect 3 0 20 0;
#X connect 4 0 19 0;
#X connect 5 0 21 0;
#X connect 22 0 1 1;
