#N canvas 480 113 890 832 16;
#X obj 137 32 inlet;
#X obj 405 136 inlet decay;
#X obj 137 61 t b f f;
#X obj 238 125 swap 1;
#X obj 238 154 -;
#X obj 238 183 * 3.5;
#X obj 238 212 + 1.5;
#X obj 170 126 pow 2;
#X obj 170 155 * 7000;
#X msg 170 184 \$1 30;
#X obj 184 264 line~;
#X obj 131 227 noise~;
#X obj 131 299 vcf~ 7000 2;
#X obj 131 328 hip~ 20;
#X obj 131 357 *~ 50;
#X obj 131 386 clip~ -1 1;
#X obj 131 525 *~;
#X obj 405 165 * 7000;
#X obj 378 215 pow 2;
#X obj 378 244 *;
#X obj 351 285 f;
#X msg 351 314 1 \, 0 \$1;
#X obj 351 343 vline~;
#X obj 351 372 *~;
#X obj 157 489 +~ 0.5;
#X obj 131 554 cos~;
#X obj 131 583 bp~ 6000 1;
#X obj 131 612 *~;
#X obj 131 641 hip~ 20;
#X obj 131 670 hip~ 20;
#X obj 131 699 hip~ 20;
#X obj 131 728 *~ 0.3;
#X obj 131 757 outlet~;
#X connect 0 0 2 0;
#X connect 1 0 17 0;
#X connect 2 0 20 0;
#X connect 2 1 7 0;
#X connect 2 2 3 0;
#X connect 3 0 4 0;
#X connect 3 1 4 1;
#X connect 4 0 5 0;
#X connect 4 0 18 0;
#X connect 5 0 6 0;
#X connect 6 0 12 2;
#X connect 7 0 8 0;
#X connect 8 0 9 0;
#X connect 9 0 10 0;
#X connect 10 0 12 1;
#X connect 11 0 12 0;
#X connect 12 0 13 0;
#X connect 13 0 14 0;
#X connect 14 0 15 0;
#X connect 15 0 16 0;
#X connect 16 0 25 0;
#X connect 17 0 19 1;
#X connect 18 0 19 0;
#X connect 19 0 20 1;
#X connect 20 0 21 0;
#X connect 21 0 22 0;
#X connect 22 0 23 0;
#X connect 22 0 23 1;
#X connect 23 0 24 0;
#X connect 23 0 27 1;
#X connect 24 0 16 1;
#X connect 25 0 26 0;
#X connect 26 0 27 0;
#X connect 27 0 28 0;
#X connect 28 0 29 0;
#X connect 29 0 30 0;
#X connect 30 0 31 0;
#X connect 31 0 32 0;
