#N canvas 153 155 1183 912 16;
#X floatatom 249 540 0 0 0 0 - - -;
#X floatatom 249 436 0 0 0 0 - - -;
#X floatatom 270 243 0 0 0 0 - - -;
#X obj 270 210 r incr;
#X obj 248 175 metro 50;
#X floatatom 248 343 5 0 0 0 - - -, f 5;
#X obj 248 374 s phase;
#X obj 248 310 +;
#X obj 249 469 s dropoff+;
#X obj 249 672 s interval+;
#X floatatom 249 639 0 0 0 0 - - -;
#X obj 249 573 s pitch+;
#X obj 249 403 r dropoff;
#X obj 249 507 r pitch;
#X obj 249 606 r interval;
#X obj 248 52 r metro;
#X obj 308 305 f;
#X obj 308 338 mod 10000;
#X obj 248 277 f;
#X obj 248 155 tgl 15 0 empty empty empty 0 -6 0 8 -262144 -1 -1 0
1;
#X floatatom 55 715 0 0 0 0 - - -;
#X obj 55 692 r rev;
#X obj 120 692 r revtime;
#X floatatom 120 715 0 0 0 0 - - -;
#X obj 45 749 rev2~;
#X obj 408 809 vorpal_bus \$0;
#X obj 464 21 vorpal_parameter \$0 play;
#X obj 602 733 loadbang;
#X obj 27 838 throw~ \$0-shep;
#X obj 409 545 catch~ \$0-shep;
#X obj 409 583 hip~ 3;
#X obj 409 648 *~ 0.1;
#X obj 466 617 r vol;
#X msg 602 768 0.6;
#X obj 193 16 expr~ $v1;
#X obj 28 210 shepvoice 3000;
#X obj 28 12 shepvoice 0;
#X obj 28 45 shepvoice 500;
#X obj 28 78 shepvoice 1000;
#X obj 28 111 shepvoice 1500;
#X obj 28 144 shepvoice 2000;
#X obj 28 177 shepvoice 2500;
#X obj 28 243 shepvoice 3500;
#X obj 28 276 shepvoice 4000;
#X obj 28 309 shepvoice 4500;
#X obj 28 342 shepvoice 5000;
#X obj 28 375 shepvoice 5500;
#X obj 28 408 shepvoice 6000;
#X obj 28 440 shepvoice 6500;
#X obj 28 474 shepvoice 7000;
#X obj 28 507 shepvoice 7500;
#X obj 28 540 shepvoice 8000;
#X obj 28 572 shepvoice 8500;
#X obj 28 604 shepvoice 9000;
#X obj 28 636 shepvoice 9500;
#X obj 531 219 s vol;
#X obj 531 189 line;
#X msg 464 440 0 0 \, 0.1 100;
#X msg 497 261 \; dropoff 10 \; pitch 60 \; interval 120 \; metro 1
\; rev 84 \; revtime 87 \; incr -10;
#X obj 464 468 line;
#X obj 464 496 s vol;
#X obj 464 62 t b b b;
#X msg 738 249 start;
#X obj 738 277 vorpal_sample samples/Queda_02.wav;
#X obj 738 332 throw~ \$0-out;
#X obj 531 124 t b b;
#X obj 499 655 catch~ \$0-out;
#X obj 704 434 vorpal_sample samples/Queda_01.wav;
#X obj 704 492 throw~ \$0-out;
#X obj 531 96 delay 3000;
#X msg 531 161 0.1 0 \, 0 2000;
#X obj 671 220 t b b b;
#X obj 671 652 throw~ \$0-out;
#X obj 671 594 vorpal_sample samples/wake_up_01.wav;
#X msg 704 394 start;
#X msg 671 554 start;
#X obj 704 366 delay 3000;
#X obj 671 526 delay 4600;
#X connect 0 0 11 0;
#X connect 1 0 8 0;
#X connect 2 0 18 1;
#X connect 3 0 2 0;
#X connect 4 0 18 0;
#X connect 5 0 6 0;
#X connect 7 0 16 0;
#X connect 7 0 5 0;
#X connect 10 0 9 0;
#X connect 12 0 1 0;
#X connect 13 0 0 0;
#X connect 14 0 10 0;
#X connect 15 0 19 0;
#X connect 16 0 17 0;
#X connect 17 0 7 1;
#X connect 18 0 7 0;
#X connect 19 0 4 0;
#X connect 20 0 24 1;
#X connect 21 0 20 0;
#X connect 22 0 23 0;
#X connect 23 0 24 2;
#X connect 24 0 28 0;
#X connect 24 1 28 0;
#X connect 26 0 61 0;
#X connect 27 0 33 0;
#X connect 29 0 30 0;
#X connect 30 0 31 0;
#X connect 31 0 25 0;
#X connect 32 0 31 1;
#X connect 33 0 25 1;
#X connect 35 0 42 0;
#X connect 36 0 37 0;
#X connect 37 0 38 0;
#X connect 38 0 39 0;
#X connect 39 0 40 0;
#X connect 40 0 41 0;
#X connect 41 0 35 0;
#X connect 42 0 43 0;
#X connect 43 0 44 0;
#X connect 44 0 45 0;
#X connect 45 0 46 0;
#X connect 46 0 47 0;
#X connect 47 0 48 0;
#X connect 48 0 49 0;
#X connect 49 0 50 0;
#X connect 50 0 51 0;
#X connect 51 0 52 0;
#X connect 52 0 53 0;
#X connect 53 0 54 0;
#X connect 54 0 24 0;
#X connect 54 0 28 0;
#X connect 56 0 55 0;
#X connect 57 0 59 0;
#X connect 59 0 60 0;
#X connect 61 0 57 0;
#X connect 61 1 58 0;
#X connect 61 2 69 0;
#X connect 62 0 63 0;
#X connect 63 0 64 0;
#X connect 65 0 70 0;
#X connect 65 1 71 0;
#X connect 66 0 25 0;
#X connect 67 0 68 0;
#X connect 69 0 65 0;
#X connect 70 0 56 0;
#X connect 71 0 77 0;
#X connect 71 1 76 0;
#X connect 71 2 62 0;
#X connect 73 0 72 0;
#X connect 74 0 67 0;
#X connect 75 0 73 0;
#X connect 76 0 74 0;
#X connect 77 0 75 0;
