#N canvas 693 350 650 485 16;
#X obj 74 393 vorpal_bus \$0;
#X obj 268 299 loadbang;
#X msg 75 156 start;
#X obj 75 192 vorpal_sample samples/Wdr_FX_ForceField.wav;
#X obj 75 102 metro 1290;
#X obj 75 55 loadbang;
#X msg 268 327 1;
#X connect 1 0 6 0;
#X connect 2 0 3 0;
#X connect 3 0 0 0;
#X connect 4 0 2 0;
#X connect 5 0 4 0;
#X connect 6 0 0 1;
