#N canvas 572 252 1173 283 16;
#X obj 223 83 loadbang;
#X msg 223 120 0.3;
#X obj 563 83 loadbang;
#X msg 563 120 0.3;
#X obj 429 40 markov-player mario 76;
#X obj 89 40 markov-player undertale 77;
#X obj 863 83 loadbang;
#X msg 863 120 0.3;
#X obj 729 40 markov-player tetris 76;
#X obj 88 190 vorpal_bus \$0;
#X connect 0 0 1 0;
#X connect 1 0 9 1;
#X connect 2 0 3 0;
#X connect 5 0 9 0;
#X connect 6 0 7 0;
