#N canvas 1388 204 416 746 16;
#X obj 82 150 vorpal_bus;
#X obj 216 77 loadbang;
#X msg 216 114 0.5;
#N canvas 3 90 1417 847 mario-theme 0;
#X msg 117 151 next;
#X obj 95 77 loadbang;
#X floatatom 49 274 5 0 0 0 - - -, f 5;
#X obj 418 203 mario;
#X msg 418 79 load mario-states.txt;
#X obj 689 234 vorpal_tri;
#X obj 418 453 delay;
#X obj 964 99 mtof;
#X msg 964 127 freq \$1;
#X obj 418 358 t b f;
#X obj 400 640 vline~;
#X obj 401 729 *~;
#X obj 980 162 loadbang;
#X msg 980 193 freq 420 \, amp 0.6;
#X msg 430 122 state 45;
#X msg 95 112 load mario-transitions.txt;
#X obj 399 30 loadbang;
#X msg 120 246 state \$1;
#X obj 353 491 t b b;
#X obj 465 403 / 4;
#X obj 281 558 spigot;
#X obj 357 529 tgl 15 0 empty empty empty 17 7 0 10 -262144 -1 -1 0
1;
#X msg 400 566 0 10 \, 1 5 \, 0 100 100;
#X obj 716 409 vorpal_tri;
#X obj 991 274 mtof;
#X msg 991 302 freq \$1;
#X obj 1007 337 loadbang;
#X msg 1007 368 freq 420 \, amp 0.6;
#X obj 745 577 vorpal_tri;
#X obj 1020 442 mtof;
#X msg 1020 470 freq \$1;
#X obj 1036 505 loadbang;
#X msg 1036 536 freq 420 \, amp 0.6;
#X obj 688 508 +~;
#X obj 689 680 +~;
#X obj 964 62 r \$0-melody;
#X obj 991 236 r \$0-harm1;
#X obj 1020 411 r \$0-harm2;
#X obj 467 243 s \$0-harm2;
#X obj 457 273 s \$0-harm1;
#X obj 447 313 s \$0-melody;
#X obj 402 788 outlet~;
#X obj 95 190 markov;
#X connect 0 0 42 0;
#X connect 1 0 15 0;
#X connect 3 0 9 0;
#X connect 3 1 40 0;
#X connect 3 2 39 0;
#X connect 3 3 38 0;
#X connect 4 0 3 0;
#X connect 5 0 33 0;
#X connect 6 0 18 0;
#X connect 7 0 8 0;
#X connect 8 0 5 2;
#X connect 9 0 6 0;
#X connect 9 1 19 0;
#X connect 10 0 11 0;
#X connect 11 0 41 0;
#X connect 12 0 13 0;
#X connect 13 0 5 2;
#X connect 14 0 3 0;
#X connect 15 0 42 0;
#X connect 16 0 4 0;
#X connect 17 0 3 0;
#X connect 18 0 20 0;
#X connect 18 1 22 0;
#X connect 19 0 6 1;
#X connect 20 0 0 0;
#X connect 21 0 20 1;
#X connect 22 0 10 0;
#X connect 23 0 33 1;
#X connect 24 0 25 0;
#X connect 25 0 23 2;
#X connect 26 0 27 0;
#X connect 27 0 23 2;
#X connect 29 0 30 0;
#X connect 30 0 28 2;
#X connect 31 0 32 0;
#X connect 32 0 28 2;
#X connect 33 0 34 0;
#X connect 34 0 11 1;
#X connect 35 0 7 0;
#X connect 36 0 24 0;
#X connect 37 0 29 0;
#X connect 42 0 17 0;
#X connect 42 0 2 0;
#X restore 81 34 pd mario-theme;
#X obj 91 407 vorpal_bus;
#X obj 225 334 loadbang;
#N canvas 564 128 715 847 tetris-theme 0;
#X msg 117 194 next;
#X obj 95 77 loadbang;
#X floatatom 49 317 5 0 0 0 - - -, f 5;
#X obj 230 616 delay;
#X obj 230 551 t b f;
#X obj 230 244 loadbang;
#X msg 120 289 state \$1;
#X obj 230 713 spigot;
#X obj 401 109 tgl 48 0 empty empty empty 17 7 0 10 -262144 -1 -1 0
1;
#X obj 287 456 s \$0-tetris-note1;
#X obj 268 486 s \$0-tetris-note2;
#X obj 249 516 s \$0-tetris-note3;
#X msg 95 112 load tetris-transitions.txt;
#X msg 230 292 load tetris-states.txt;
#X obj 117 149 r \$0-tetris-next;
#X obj 312 663 s \$0-tetris-play;
#X obj 230 763 s \$0-tetris-next;
#X obj 42 530 outlet~;
#X obj 41 489 catch~ \$0-tetris;
#N canvas 3 111 698 510 note1 0;
#X obj 76 352 vorpal_tri;
#X obj 351 217 mtof;
#X msg 351 245 freq \$1;
#X obj 367 280 loadbang;
#X msg 367 311 freq 420 \, amp 0.6;
#X obj 351 48 list split 1;
#X obj 93 192 vline~;
#X obj 94 231 *~;
#X obj 93 83 f;
#X obj 93 25 r \$0-tetris-play;
#X obj 398 167 f;
#X obj 430 86 loadbang;
#X msg 430 129 76;
#X obj 351 106 t f b;
#X obj 351 167 +;
#X floatatom 533 199 5 0 0 0 - - -, f 5;
#X obj 95 282 throw~ \$0-tetris;
#X obj 485 239 s \$0-tetris-melody;
#X obj 351 13 r \$0-tetris-note1;
#X obj 539 157 bng 32 250 50 0 empty empty empty 17 7 0 10 -262144
-1 -1;
#X obj 93 121 *;
#X obj 145 85 r \$0-tetris-tempo;
#X msg 93 158 0 10 \, 1 5 \, 0 10 \$1;
#X connect 0 0 7 1;
#X connect 1 0 2 0;
#X connect 2 0 0 2;
#X connect 3 0 4 0;
#X connect 4 0 0 2;
#X connect 5 0 13 0;
#X connect 5 1 8 1;
#X connect 6 0 7 0;
#X connect 7 0 16 0;
#X connect 8 0 20 0;
#X connect 9 0 8 0;
#X connect 10 0 14 1;
#X connect 11 0 12 0;
#X connect 12 0 10 1;
#X connect 13 0 14 0;
#X connect 13 1 10 0;
#X connect 14 0 10 1;
#X connect 14 0 1 0;
#X connect 14 0 15 0;
#X connect 14 0 17 0;
#X connect 18 0 5 0;
#X connect 19 0 12 0;
#X connect 20 0 22 0;
#X connect 21 0 20 1;
#X connect 22 0 6 0;
#X coords 0 -1 1 1 85 96 1 512 128;
#X restore 484 87 pd note1;
#N canvas 171 355 581 505 note2 0;
#X obj 19 353 vorpal_tri;
#X obj 294 218 mtof;
#X msg 294 246 freq \$1;
#X obj 310 281 loadbang;
#X msg 310 312 freq 420 \, amp 0.6;
#X obj 294 49 list split 1;
#X obj 36 223 vline~;
#X obj 37 262 *~;
#X obj 36 94 f;
#X obj 36 26 r \$0-tetris-play;
#X floatatom 347 172 5 0 0 0 - - -, f 5;
#X obj 38 313 throw~ \$0-tetris;
#X obj 294 21 r \$0-tetris-note2;
#X obj 294 132 +;
#X obj 321 101 r \$0-tetris-melody;
#X floatatom 227 121 5 0 0 0 - - -, f 5;
#X obj 36 155 spigot;
#X obj 101 77 r \$0-tetris-tempo;
#X obj 36 122 *;
#X msg 36 189 0 10 \, 1 5 \, 0 10 \$1;
#X connect 0 0 7 1;
#X connect 1 0 2 0;
#X connect 2 0 0 2;
#X connect 3 0 4 0;
#X connect 4 0 0 2;
#X connect 5 0 13 0;
#X connect 5 0 15 0;
#X connect 5 0 16 1;
#X connect 5 1 8 1;
#X connect 6 0 7 0;
#X connect 7 0 11 0;
#X connect 8 0 18 0;
#X connect 9 0 8 0;
#X connect 12 0 5 0;
#X connect 13 0 1 0;
#X connect 13 0 10 0;
#X connect 14 0 13 1;
#X connect 16 0 19 0;
#X connect 17 0 18 1;
#X connect 18 0 16 0;
#X connect 19 0 6 0;
#X restore 560 215 pd note2;
#N canvas 242 321 581 505 note3 0;
#X obj 19 353 vorpal_tri;
#X obj 294 218 mtof;
#X msg 294 246 freq \$1;
#X obj 310 281 loadbang;
#X msg 310 312 freq 420 \, amp 0.6;
#X obj 294 49 list split 1;
#X obj 36 233 vline~;
#X obj 37 272 *~;
#X obj 36 94 f;
#X obj 36 26 r \$0-tetris-play;
#X floatatom 347 172 5 0 0 0 - - -, f 5;
#X obj 38 305 throw~ \$0-tetris;
#X obj 294 132 +;
#X obj 321 101 r \$0-tetris-melody;
#X floatatom 227 121 5 0 0 0 - - -, f 5;
#X obj 36 165 spigot;
#X obj 294 21 r \$0-tetris-note3;
#X obj 89 85 r \$0-tetris-tempo;
#X obj 36 122 *;
#X msg 36 199 0 10 \, 1 5 \, 0 10 \$1;
#X connect 0 0 7 1;
#X connect 1 0 2 0;
#X connect 2 0 0 2;
#X connect 3 0 4 0;
#X connect 4 0 0 2;
#X connect 5 0 12 0;
#X connect 5 0 14 0;
#X connect 5 0 15 1;
#X connect 5 1 8 1;
#X connect 6 0 7 0;
#X connect 7 0 11 0;
#X connect 8 0 18 0;
#X connect 9 0 8 0;
#X connect 12 0 1 0;
#X connect 12 0 10 0;
#X connect 13 0 12 1;
#X connect 15 0 19 0;
#X connect 16 0 5 0;
#X connect 17 0 18 1;
#X connect 18 0 15 0;
#X connect 19 0 6 0;
#X restore 560 295 pd note3;
#X obj 505 426 s \$0-tetris-tempo;
#X obj 498 380 hsl 128 15 0 1 0 1 empty empty empty -2 -8 0 10 -262144
-1 -1 5900 1;
#X obj 304 553 r \$0-tetris-tempo;
#X obj 277 586 *;
#X obj 230 416 tetris;
#X obj 95 233 markov;
#X connect 0 0 27 0;
#X connect 1 0 12 0;
#X connect 3 0 7 0;
#X connect 3 0 15 0;
#X connect 4 0 3 0;
#X connect 4 1 25 0;
#X connect 5 0 13 0;
#X connect 6 0 26 0;
#X connect 7 0 16 0;
#X connect 8 0 7 1;
#X connect 12 0 27 0;
#X connect 13 0 26 0;
#X connect 14 0 0 0;
#X connect 18 0 17 0;
#X connect 23 0 22 0;
#X connect 24 0 25 1;
#X connect 25 0 3 1;
#X connect 26 0 4 0;
#X connect 26 1 11 0;
#X connect 26 2 10 0;
#X connect 26 3 9 0;
#X connect 27 0 6 0;
#X connect 27 0 2 0;
#X restore 90 291 pd tetris-theme;
#X msg 225 371 0.3;
#X obj 91 627 vorpal_bus;
#X obj 225 554 loadbang;
#X msg 225 591 0.3;
#X obj 90 511 markov-player undertale 77;
#X connect 1 0 2 0;
#X connect 2 0 0 1;
#X connect 3 0 0 0;
#X connect 5 0 7 0;
#X connect 6 0 4 0;
#X connect 7 0 4 1;
#X connect 9 0 10 0;
#X connect 10 0 8 1;
#X connect 11 0 8 0;
