#N canvas 769 336 450 585 16;
#X obj 90 483 vorpal_bus \$0;
#X obj 284 407 loadbang;
#N canvas 564 156 715 847 mario-theme 0;
#X obj 95 107 loadbang;
#X floatatom 49 347 5 0 0 0 - - -, f 5;
#X obj 230 646 delay;
#X obj 230 581 t b f;
#X obj 230 274 loadbang;
#X msg 120 319 state \$1;
#X obj 230 743 spigot;
#X obj 419 188 tgl 48 0 empty empty empty 17 7 0 10 -262144 -1 -1 0
1;
#X obj 347 486 s \$0-tetris-note1;
#X obj 308 516 s \$0-tetris-note2;
#X obj 269 546 s \$0-tetris-note3;
#X obj 117 179 r \$0-tetris-next;
#X obj 312 693 s \$0-tetris-play;
#X obj 230 793 s \$0-tetris-next;
#X obj 42 560 outlet~;
#X obj 41 519 catch~ \$0-tetris;
#N canvas 3 115 698 510 note1 0;
#X obj 76 352 vorpal_tri;
#X obj 351 217 mtof;
#X msg 351 245 freq \$1;
#X obj 367 280 loadbang;
#X msg 367 311 freq 420 \, amp 0.6;
#X obj 351 48 list split 1;
#X obj 93 192 vline~;
#X obj 94 231 *~;
#X obj 93 83 f;
#X obj 93 25 r \$0-tetris-play;
#X obj 398 167 f;
#X obj 430 86 loadbang;
#X msg 430 129 76;
#X obj 351 106 t f b;
#X obj 351 167 +;
#X floatatom 533 199 5 0 0 0 - - -, f 5;
#X obj 95 282 throw~ \$0-tetris;
#X obj 485 239 s \$0-tetris-melody;
#X obj 351 13 r \$0-tetris-note1;
#X obj 539 157 bng 32 250 50 0 empty empty empty 17 7 0 10 -262144
-1 -1;
#X obj 93 121 *;
#X obj 145 85 r \$0-tetris-tempo;
#X msg 93 158 0 10 \, 1 5 \, 0 10 \$1;
#X obj 543 46 inlet reset;
#X connect 0 0 7 1;
#X connect 1 0 2 0;
#X connect 2 0 0 2;
#X connect 3 0 4 0;
#X connect 4 0 0 2;
#X connect 5 0 13 0;
#X connect 5 1 8 1;
#X connect 6 0 7 0;
#X connect 7 0 16 0;
#X connect 8 0 20 0;
#X connect 9 0 8 0;
#X connect 10 0 14 1;
#X connect 11 0 12 0;
#X connect 12 0 10 1;
#X connect 13 0 14 0;
#X connect 13 1 10 0;
#X connect 14 0 10 1;
#X connect 14 0 1 0;
#X connect 14 0 15 0;
#X connect 14 0 17 0;
#X connect 18 0 5 0;
#X connect 19 0 12 0;
#X connect 20 0 22 0;
#X connect 21 0 20 1;
#X connect 22 0 6 0;
#X connect 23 0 19 0;
#X coords 0 -1 1 1 85 96 1 512 128;
#X restore 484 117 pd note1;
#N canvas 171 355 581 505 note2 0;
#X obj 19 353 vorpal_tri;
#X obj 294 218 mtof;
#X msg 294 246 freq \$1;
#X obj 310 281 loadbang;
#X msg 310 312 freq 420 \, amp 0.6;
#X obj 294 49 list split 1;
#X obj 36 223 vline~;
#X obj 37 262 *~;
#X obj 36 94 f;
#X obj 36 26 r \$0-tetris-play;
#X floatatom 347 172 5 0 0 0 - - -, f 5;
#X obj 38 313 throw~ \$0-tetris;
#X obj 294 21 r \$0-tetris-note2;
#X obj 294 132 +;
#X obj 321 101 r \$0-tetris-melody;
#X floatatom 227 121 5 0 0 0 - - -, f 5;
#X obj 36 155 spigot;
#X obj 101 77 r \$0-tetris-tempo;
#X obj 36 122 *;
#X msg 36 189 0 10 \, 1 5 \, 0 10 \$1;
#X connect 0 0 7 1;
#X connect 1 0 2 0;
#X connect 2 0 0 2;
#X connect 3 0 4 0;
#X connect 4 0 0 2;
#X connect 5 0 13 0;
#X connect 5 0 15 0;
#X connect 5 0 16 1;
#X connect 5 1 8 1;
#X connect 6 0 7 0;
#X connect 7 0 11 0;
#X connect 8 0 18 0;
#X connect 9 0 8 0;
#X connect 12 0 5 0;
#X connect 13 0 1 0;
#X connect 13 0 10 0;
#X connect 14 0 13 1;
#X connect 16 0 19 0;
#X connect 17 0 18 1;
#X connect 18 0 16 0;
#X connect 19 0 6 0;
#X restore 560 245 pd note2;
#N canvas 242 321 581 505 note3 0;
#X obj 19 353 vorpal_tri;
#X obj 294 218 mtof;
#X msg 294 246 freq \$1;
#X obj 310 281 loadbang;
#X msg 310 312 freq 420 \, amp 0.6;
#X obj 294 49 list split 1;
#X obj 36 233 vline~;
#X obj 37 272 *~;
#X obj 36 94 f;
#X obj 36 26 r \$0-tetris-play;
#X floatatom 347 172 5 0 0 0 - - -, f 5;
#X obj 38 305 throw~ \$0-tetris;
#X obj 294 132 +;
#X obj 321 101 r \$0-tetris-melody;
#X floatatom 227 121 5 0 0 0 - - -, f 5;
#X obj 36 165 spigot;
#X obj 294 21 r \$0-tetris-note3;
#X obj 89 85 r \$0-tetris-tempo;
#X obj 36 122 *;
#X msg 36 199 0 10 \, 1 5 \, 0 10 \$1;
#X connect 0 0 7 1;
#X connect 1 0 2 0;
#X connect 2 0 0 2;
#X connect 3 0 4 0;
#X connect 4 0 0 2;
#X connect 5 0 12 0;
#X connect 5 0 14 0;
#X connect 5 0 15 1;
#X connect 5 1 8 1;
#X connect 6 0 7 0;
#X connect 7 0 11 0;
#X connect 8 0 18 0;
#X connect 9 0 8 0;
#X connect 12 0 1 0;
#X connect 12 0 10 0;
#X connect 13 0 12 1;
#X connect 15 0 19 0;
#X connect 16 0 5 0;
#X connect 17 0 18 1;
#X connect 18 0 15 0;
#X connect 19 0 6 0;
#X restore 560 325 pd note3;
#X obj 505 456 s \$0-tetris-tempo;
#X obj 498 410 hsl 128 15 0 1 0 1 empty empty empty -2 -8 0 10 -262144
-1 -1 3300 1;
#X obj 304 583 r \$0-tetris-tempo;
#X obj 277 616 *;
#X msg 95 142 load mario-transitions.txt;
#X msg 230 322 load mario-states.txt;
#X obj 95 263 markov mario;
#X obj 264 15 inlet toggle;
#X obj 264 83 t b b b b;
#X obj 264 43 route start stop;
#X msg 393 85 0;
#X msg 363 120 1;
#X obj 230 446 tetris mario;
#X msg 117 224 next;
#X msg 183 227 rand;
#X connect 0 0 23 0;
#X connect 2 0 6 0;
#X connect 2 0 12 0;
#X connect 3 0 2 0;
#X connect 3 1 22 0;
#X connect 4 0 24 0;
#X connect 5 0 31 0;
#X connect 6 0 13 0;
#X connect 7 0 6 1;
#X connect 11 0 32 0;
#X connect 15 0 14 0;
#X connect 20 0 19 0;
#X connect 21 0 22 1;
#X connect 22 0 2 1;
#X connect 23 0 25 0;
#X connect 24 0 31 0;
#X connect 25 0 5 0;
#X connect 25 0 1 0;
#X connect 26 0 28 0;
#X connect 27 0 33 0;
#X connect 27 1 23 0;
#X connect 27 1 24 0;
#X connect 27 2 30 0;
#X connect 27 3 16 0;
#X connect 28 0 27 0;
#X connect 28 1 29 0;
#X connect 29 0 7 0;
#X connect 30 0 7 0;
#X connect 31 0 3 0;
#X connect 31 1 10 0;
#X connect 31 2 9 0;
#X connect 31 3 8 0;
#X connect 32 0 25 0;
#X connect 33 0 25 0;
#X restore 89 150 pd mario-theme;
#X msg 89 53 start;
#X obj 89 12 vorpal_parameter \$0 start;
#X obj 150 57 vorpal_parameter \$0 stop;
#X msg 150 98 stop;
#X obj 126 186 vorpal_parameter \$0 block;
#X obj 126 395 line;
#X obj 177 292 vorpal_parameter \$0 unblock;
#X msg 177 333 4000 200;
#X obj 89 448 lop~ 4000;
#X msg 126 227 100 200;
#X msg 284 444 0.3;
#X connect 1 0 13 0;
#X connect 2 0 11 0;
#X connect 3 0 2 0;
#X connect 4 0 3 0;
#X connect 5 0 6 0;
#X connect 6 0 2 0;
#X connect 7 0 12 0;
#X connect 8 0 11 1;
#X connect 9 0 10 0;
#X connect 10 0 8 0;
#X connect 11 0 0 0;
#X connect 12 0 8 0;
#X connect 13 0 0 1;
