#N canvas 852 247 619 830 16;
#X obj 91 537 vorpal_tri;
#X obj 366 402 mtof;
#X msg 366 430 freq \$1;
#X obj 382 465 loadbang;
#X msg 382 496 freq 420 \, amp 0.6;
#X obj 64 497 vline~;
#X obj 63 656 *~;
#X obj 64 385 f;
#X floatatom 428 375 5 0 0 0 - - -, f 5;
#X obj 366 316 +;
#X msg 64 463 0 5 \, 1 5 5 \, 0 10 \$1;
#X obj 33 219 list split 1;
#X obj 33 256 t b f;
#X obj 33 329 delay;
#X obj 64 421 spigot;
#X obj 91 348 /;
#X obj 308 139 list split 2;
#X obj 308 94 list;
#X obj 393 285 r \$1-melody;
#X obj 80 291 /;
#X floatatom 488 375 5 0 0 0 - - -, f 5;
#X floatatom 548 375 5 0 0 0 - - -, f 5;
#X obj 64 707 throw~ \$1-\$3;
#X obj 345 57 r \$3-\$1-note\$2;
#X obj 107 255 r \$3-\$1-tempo;
#X obj 118 312 r \$3-\$1-tempo;
#X obj 308 29 r \$1-\$3-hit;
#X connect 0 0 6 1;
#X connect 1 0 2 0;
#X connect 2 0 0 2;
#X connect 3 0 4 0;
#X connect 4 0 0 2;
#X connect 5 0 6 0;
#X connect 6 0 22 0;
#X connect 7 0 14 0;
#X connect 9 0 1 0;
#X connect 10 0 5 0;
#X connect 11 0 12 0;
#X connect 11 1 15 0;
#X connect 12 0 13 0;
#X connect 12 1 19 0;
#X connect 13 0 7 0;
#X connect 14 0 10 0;
#X connect 15 0 7 1;
#X connect 15 0 21 0;
#X connect 16 0 11 0;
#X connect 16 1 9 0;
#X connect 16 1 14 1;
#X connect 16 1 8 0;
#X connect 17 0 16 0;
#X connect 18 0 9 1;
#X connect 19 0 13 1;
#X connect 19 0 20 0;
#X connect 23 0 17 1;
#X connect 24 0 19 1;
#X connect 25 0 15 1;
#X connect 26 0 17 0;
#X coords 0 -1 1 1 196 60 1 420 340;
