#N canvas 435 220 1125 769 16;
#X obj 20 623 qlist;
#X msg 20 586 read \$1 \, bang;
#X obj 20 548 symbol;
#X obj 20 30 inlet;
#X obj 20 66 route load state;
#X obj 98 205 t f f f f;
#X obj 448 205 t f f f f;
#X obj 875 291 outlet note1;
#X obj 846 355 outlet note2;
#X obj 817 444 outlet note3;
#X obj 788 205 t f f f f;
#X obj 788 524 outlet note4;
#X obj 98 110 t f f f;
#X obj 535 291 outlet note5;
#X obj 506 355 outlet note6;
#X obj 477 444 outlet note7;
#X obj 448 524 outlet note8;
#X obj 185 291 outlet note9;
#X obj 156 355 outlet note10;
#X obj 127 444 outlet note11;
#X obj 98 524 outlet note12;
#X obj 185 250 markov-state \$1 9;
#X obj 156 320 markov-state \$1 10;
#X obj 127 400 markov-state \$1 11;
#X obj 98 480 markov-state \$1 12;
#X obj 535 250 markov-state \$1 5;
#X obj 506 320 markov-state \$1 6;
#X obj 477 400 markov-state \$1 7;
#X obj 448 480 markov-state \$1 8;
#X obj 875 250 markov-state \$1 1;
#X obj 846 320 markov-state \$1 2;
#X obj 817 400 markov-state \$1 3;
#X obj 788 480 markov-state \$1 4;
#X connect 1 0 0 0;
#X connect 2 0 1 0;
#X connect 3 0 4 0;
#X connect 4 0 2 0;
#X connect 4 1 12 0;
#X connect 5 0 24 0;
#X connect 5 1 23 0;
#X connect 5 2 22 0;
#X connect 5 3 21 0;
#X connect 6 0 28 0;
#X connect 6 1 27 0;
#X connect 6 2 26 0;
#X connect 6 3 25 0;
#X connect 10 0 32 0;
#X connect 10 1 31 0;
#X connect 10 2 30 0;
#X connect 10 3 29 0;
#X connect 12 0 5 0;
#X connect 12 1 6 0;
#X connect 12 2 10 0;
#X connect 21 0 17 0;
#X connect 22 0 18 0;
#X connect 23 0 19 0;
#X connect 24 0 20 0;
#X connect 25 0 13 0;
#X connect 26 0 14 0;
#X connect 27 0 15 0;
#X connect 28 0 16 0;
#X connect 29 0 7 0;
#X connect 30 0 8 0;
#X connect 31 0 9 0;
#X connect 32 0 11 0;
