#N canvas 146 267 953 731 16;
#X floatatom 87 240 5 0 0 1 Current_state - -, f 5;
#X msg 75 268 state \$1;
#X obj 486 316 spigot;
#X obj 543 257 tgl 48 0 empty empty empty 17 7 0 10 -262144 -1 -1 0
1;
#X obj 66 615 outlet~;
#X obj 66 480 hsl 128 15 0.1 10 1 1 empty empty empty -2 -8 0 10 -262144
-1 -1 6600 1;
#X floatatom 107 513 5 0 0 0 - - -, f 5;
#X obj 75 60 symbol \$1;
#X msg 75 87 load \$1-transitions.txt;
#X obj 75 208 markov \$1;
#X obj 199 298 symbol \$1;
#X msg 199 328 load \$1-states.txt;
#X obj 62 426 s \$0-\$1-reload;
#X obj 62 347 loadbang;
#X obj 75 32 r \$0-\$1-reload;
#X obj 82 389 bng 24 250 50 0 empty empty empty 17 7 0 10 -262144 -1
-1;
#X obj 199 270 r \$0-\$1-reload;
#X obj 199 372 markov-converter \$1;
#X obj 366 12 inlet cmd;
#X obj 366 40 route start stop;
#X msg 413 117 1;
#X msg 488 83 0;
#X obj 366 67 t b b b b;
#X obj 317 180 s \$0-\$1-reload;
#X obj 65 584 catch~ \$1-\$0;
#X obj 486 122 markov-melody \$1 1 \$2 \$0;
#X obj 688 67 markov-acc \$1 2 \$0;
#X obj 97 124 r \$0-\$1-next;
#X obj 486 346 s \$0-\$1-next;
#X obj 476 408 s \$0-\$1-note1;
#X obj 450 440 s \$0-\$1-note2;
#X obj 425 472 s \$0-\$1-note3;
#X obj 400 501 s \$0-\$1-note4;
#X obj 375 528 s \$0-\$1-note5;
#X obj 350 560 s \$0-\$1-note6;
#X obj 324 592 s \$0-\$1-note7;
#X obj 298 621 s \$0-\$1-note8;
#X obj 63 542 s \$0-\$1-tempo;
#X msg 97 169 next;
#X msg 177 167 rand;
#X obj 688 137 markov-acc \$1 3 \$0;
#X obj 688 207 markov-acc \$1 4 \$0;
#X obj 688 277 markov-acc \$1 5 \$0;
#X obj 688 347 markov-acc \$1 6 \$0;
#X obj 688 417 markov-acc \$1 7 \$0;
#X obj 688 487 markov-acc \$1 8 \$0;
#X obj 508 225 s \$1-\$0-hit;
#X connect 1 0 17 0;
#X connect 2 0 28 0;
#X connect 3 0 2 1;
#X connect 5 0 6 0;
#X connect 5 0 37 0;
#X connect 7 0 8 0;
#X connect 8 0 9 0;
#X connect 9 0 1 0;
#X connect 9 0 0 0;
#X connect 10 0 11 0;
#X connect 11 0 17 0;
#X connect 13 0 12 0;
#X connect 13 0 5 0;
#X connect 14 0 7 0;
#X connect 15 0 12 0;
#X connect 16 0 10 0;
#X connect 17 4 36 0;
#X connect 17 5 35 0;
#X connect 17 6 34 0;
#X connect 17 7 33 0;
#X connect 17 8 32 0;
#X connect 17 9 31 0;
#X connect 17 10 30 0;
#X connect 17 11 29 0;
#X connect 18 0 19 0;
#X connect 19 0 22 0;
#X connect 19 1 21 0;
#X connect 20 0 3 0;
#X connect 21 0 3 0;
#X connect 22 0 39 0;
#X connect 22 1 20 0;
#X connect 22 2 25 0;
#X connect 22 3 23 0;
#X connect 24 0 4 0;
#X connect 25 0 2 0;
#X connect 25 0 46 0;
#X connect 27 0 38 0;
#X connect 38 0 9 0;
#X connect 39 0 9 0;
