#N canvas 723 365 695 696 16;
#X obj 84 478 vorpal_tri;
#X obj 359 343 mtof;
#X msg 359 371 freq \$1;
#X obj 375 406 loadbang;
#X msg 375 437 freq 420 \, amp 0.6;
#X obj 56 437 vline~;
#X obj 56 570 *~;
#X obj 56 368 f;
#X obj 406 271 f;
#X obj 433 105 loadbang;
#X obj 359 210 t f b;
#X obj 359 271 +;
#X obj 587 149 bng 32 250 50 0 empty empty empty 17 7 0 10 -262144
-1 -1;
#X msg 433 238 77;
#X msg 56 403 0 5 \, 1 5 5 \, 0 5 \$1;
#X obj 25 168 list split 1;
#X obj 25 212 t b f;
#X obj 9 305 delay;
#X obj 9 334 t b b;
#X obj 9 640 outlet next;
#X obj 83 339 /;
#X obj 301 86 list split 2;
#X obj 433 133 symbol \$3;
#X floatatom 578 188 5 0 0 0 - #1-melody -, f 5;
#X obj 412 320 s \$1-melody;
#X obj 72 259 /;
#X obj 543 37 inlet reset;
#X obj 57 599 throw~ \$1-\$4;
#X obj 301 21 r \$4-\$1-note\$2;
#X obj 99 220 r \$4-\$1-tempo;
#X obj 110 300 r \$4-\$1-tempo;
#X connect 0 0 6 1;
#X connect 1 0 2 0;
#X connect 2 0 0 2;
#X connect 3 0 4 0;
#X connect 4 0 0 2;
#X connect 5 0 6 0;
#X connect 6 0 27 0;
#X connect 7 0 14 0;
#X connect 8 0 11 1;
#X connect 9 0 22 0;
#X connect 10 0 11 0;
#X connect 10 1 8 0;
#X connect 11 0 8 1;
#X connect 11 0 1 0;
#X connect 11 0 24 0;
#X connect 12 0 13 0;
#X connect 13 0 8 1;
#X connect 14 0 5 0;
#X connect 15 0 16 0;
#X connect 15 1 20 0;
#X connect 16 0 17 0;
#X connect 16 1 25 0;
#X connect 17 0 18 0;
#X connect 18 0 19 0;
#X connect 18 1 7 0;
#X connect 20 0 7 1;
#X connect 21 0 15 0;
#X connect 21 1 10 0;
#X connect 22 0 13 0;
#X connect 25 0 17 1;
#X connect 26 0 12 0;
#X connect 28 0 21 0;
#X connect 29 0 25 1;
#X connect 30 0 20 1;
#X coords 0 -1 1 1 85 96 2 560 128;
