#N canvas 501 340 974 611 16;
#X msg 388 389 resize \$1 \, const 0;
#X obj 388 431 s \$0-markovdelay-\$1-\$2;
#X obj 388 471 s \$0-markovnote-\$1-\$2;
#X obj 388 511 s \$0-markovlen-\$1-\$2;
#X obj 633 67 list split 1;
#X obj 631 377 list split 1;
#X obj 632 218 list split 1;
#X obj 293 28 table \$0-markovnote-\$1-\$2;
#X obj 293 58 table \$0-markovlen-\$1-\$2;
#X obj 293 88 table \$0-markovdelay-\$1-\$2;
#X obj 633 22 r markov-state-note-\$1-\$2;
#X obj 633 128 array set \$0-markovnote-\$1-\$2;
#X obj 632 175 r markov-state-len-\$1-\$2;
#X obj 632 279 array set \$0-markovlen-\$1-\$2;
#X obj 631 325 r markov-state-delay-\$1-\$2;
#X obj 631 438 array set \$0-markovdelay-\$1-\$2;
#X obj 43 37 inlet state;
#X obj 117 134 t f b;
#X msg 260 168 1;
#X obj 80 242 t f b;
#X msg 218 272 1;
#X msg 191 378 1;
#X obj 43 344 t f b;
#X obj 43 496 list;
#X obj 43 84 t f f f;
#X obj 80 461 list;
#X obj 43 535 outlet note;
#X obj 117 202 array get \$0-markovnote-\$1-\$2;
#X obj 80 310 array get \$0-markovlen-\$1-\$2;
#X obj 43 412 array get \$0-markovdelay-\$1-\$2;
#X obj 388 346 r markov-state-count-\$1;
#X connect 0 0 1 0;
#X connect 0 0 2 0;
#X connect 0 0 3 0;
#X connect 4 0 11 0;
#X connect 4 1 11 1;
#X connect 5 0 15 0;
#X connect 5 1 15 1;
#X connect 6 0 13 0;
#X connect 6 1 13 1;
#X connect 10 0 4 0;
#X connect 12 0 6 0;
#X connect 14 0 5 0;
#X connect 16 0 24 0;
#X connect 17 0 27 0;
#X connect 17 1 18 0;
#X connect 18 0 27 1;
#X connect 19 0 28 0;
#X connect 19 1 20 0;
#X connect 20 0 28 1;
#X connect 21 0 29 1;
#X connect 22 0 29 0;
#X connect 22 1 21 0;
#X connect 23 0 26 0;
#X connect 24 0 22 0;
#X connect 24 1 19 0;
#X connect 24 2 17 0;
#X connect 25 0 23 1;
#X connect 27 0 25 1;
#X connect 28 0 25 0;
#X connect 29 0 23 0;
#X connect 30 0 0 0;
