#N canvas 384 301 1404 717 16;
#X obj 53 359 qlist;
#X obj 708 216 pow;
#X obj 735 184 + 1;
#X obj 726 397 list split 1;
#X obj 726 463 *;
#X obj 726 533 list;
#X obj 726 494 t b f;
#X obj 53 28 inlet;
#X obj 321 144 f;
#X obj 321 282 t f f;
#X obj 321 233 *;
#X obj 321 509 +;
#X obj 321 555 %;
#X floatatom 388 140 5 0 0 0 - - -, f 5;
#X msg 1071 97 \; markov-state 0 \; markov-arity 1 \; markov-size 4
\; markov-set 0 0.2 0.2 0.3 0.3 \; markov-set 1 0.5 0.1 0.1 0.3 \;
markov-set 2 0 0 0.3 0.7 \; markov-set 3 1 0 0 0 \;;
#X obj 368 378 %;
#X floatatom 394 445 5 0 0 0 - - -, f 5;
#X floatatom 372 556 5 0 0 0 - - -, f 5;
#X obj 1027 463 pow;
#X obj 368 479 outlet state;
#X msg 53 321 read \$1 \, bang;
#X obj 53 151 t a b;
#X obj 53 289 symbol;
#X msg 100 226 \; markov-\$1 const 0;
#X obj 348 68 r markov-\$1-state;
#X obj 491 174 r markov-\$1-size;
#X obj 395 351 r markov-\$1-size;
#X obj 372 518 r markov-\$1-length;
#X obj 708 114 r markov-\$1-size;
#X obj 735 150 r markov-\$1-arity;
#X obj 726 366 r markov-\$1-set;
#X obj 753 430 r markov-\$1-size;
#X obj 1027 389 r markov-\$1-size;
#X obj 1054 425 r markov-\$1-arity;
#X obj 1027 495 s markov-\$1-length;
#X obj 1071 56 symbol \$1;
#X obj 1071 29 bng 24 250 50 0 empty empty empty 17 7 0 10 -262144
-1 -1;
#X text 706 75 Matrix total size;
#X text 721 327 Set matrix row;
#X text 1028 353 Markov mod denominator;
#X obj 51 398 table markov-\$1-\$0;
#X obj 368 317 array random markov-\$1-\$0;
#X obj 708 247 array size markov-\$1-\$0;
#X obj 665 592 array set markov-\$1-\$0;
#X obj 100 195 symbol \$1-\$0;
#X obj 388 108 r markov-\$1-\$0-state;
#X obj 321 598 s markov-\$1-\$0-state;
#X obj 53 65 route load next rand;
#X obj 281 104 random;
#X obj 338 22 r markov-\$1-size;
#X floatatom 258 150 5 0 0 0 - - -, f 5;
#X floatatom 951 440 5 0 0 0 - - -, f 5;
#X connect 1 0 42 0;
#X connect 2 0 1 1;
#X connect 3 0 4 0;
#X connect 3 1 5 1;
#X connect 4 0 6 0;
#X connect 5 0 43 0;
#X connect 6 0 5 0;
#X connect 6 1 43 1;
#X connect 7 0 47 0;
#X connect 8 0 10 0;
#X connect 9 0 11 0;
#X connect 9 1 41 0;
#X connect 10 0 9 0;
#X connect 11 0 12 0;
#X connect 12 0 46 0;
#X connect 15 0 11 1;
#X connect 15 0 16 0;
#X connect 15 0 19 0;
#X connect 18 0 34 0;
#X connect 20 0 0 0;
#X connect 21 0 22 0;
#X connect 21 1 44 0;
#X connect 22 0 20 0;
#X connect 24 0 8 1;
#X connect 25 0 10 1;
#X connect 25 0 41 1;
#X connect 26 0 15 1;
#X connect 27 0 12 1;
#X connect 27 0 17 0;
#X connect 28 0 1 0;
#X connect 29 0 2 0;
#X connect 30 0 3 0;
#X connect 31 0 4 1;
#X connect 32 0 18 0;
#X connect 32 0 51 0;
#X connect 33 0 18 1;
#X connect 35 0 14 0;
#X connect 36 0 35 0;
#X connect 41 0 15 0;
#X connect 44 0 23 0;
#X connect 45 0 8 1;
#X connect 45 0 13 0;
#X connect 47 0 21 0;
#X connect 47 1 8 0;
#X connect 47 2 48 0;
#X connect 48 0 8 0;
#X connect 48 0 50 0;
#X connect 49 0 48 1;
