#N canvas 325 110 1283 930 16;
#X obj 48 356 vorpal_osc;
#X obj 429 382 vorpal_env;
#X obj 908 90 vorpal_env;
#X obj 795 535 vorpal_filter;
#X obj 1061 419 hsl 128 15 0 1 0 1 empty empty empty -2 -8 0 10 -262144
-1 -1 12700 1;
#X obj 646 752 *~;
#X msg 707 24 on;
#X obj 647 890 dac~;
#X msg 213 272 freq 440 \, shape 0 \, vol 0.8;
#X obj 100 151 vorpal_seq16;
#X msg 989 486 freq 440 \, offset -2 \, q 5;
#X obj 647 828 *~ 0.8;
#X msg 576 253 auto 0;
#X obj 793 385 sig~ 1;
#X obj 791 459 expr~ $v2*$v3 + $v1*(1-$v3);
#X msg 449 324 auto 1 \, atk 10 \, del 200 \, sus 0 \, rel 300;
#X msg 792 30 auto 1 \, atk 100 \, del 120 \, sus 0 \, rel 100;
#X connect 0 0 3 0;
#X connect 1 0 5 0;
#X connect 2 0 14 1;
#X connect 3 0 5 1;
#X connect 4 0 14 2;
#X connect 5 0 11 0;
#X connect 6 0 1 0;
#X connect 6 0 2 0;
#X connect 8 0 0 2;
#X connect 10 0 3 3;
#X connect 11 0 7 0;
#X connect 11 0 7 1;
#X connect 12 0 1 1;
#X connect 13 0 14 0;
#X connect 14 0 3 2;
#X connect 15 0 1 1;
#X connect 16 0 2 1;
