#N canvas 474 405 393 518 16;
#X obj 76 70 noise~;
#X obj 129 175 mtof;
#X obj 129 112 loadbang;
#X obj 129 146 f \$2;
#X obj 77 359 *~;
#X obj 103 316 line~;
#X obj 77 431 throw~ \$3-out;
#X obj 76 211 bp~ 100 100;
#X obj 103 273 r \$3-\$1;
#X obj 77 388 *~ 0.5;
#X connect 0 0 7 0;
#X connect 1 0 7 1;
#X connect 2 0 3 0;
#X connect 3 0 1 0;
#X connect 4 0 9 0;
#X connect 5 0 4 1;
#X connect 7 0 4 0;
#X connect 8 0 5 0;
#X connect 9 0 6 0;
