#N canvas 301 370 853 574 16;
#X msg 142 81 1;
#X obj 220 324 f 0;
#X obj 548 183 t b f;
#X obj 548 358 s;
#X obj 548 148 r \$0-fadeout;
#X obj 388 183 t b f;
#X obj 388 358 s;
#X obj 388 148 r \$0-fadein;
#X obj 220 353 s \$0-fadeout;
#X obj 142 390 s \$0-fadein;
#X obj 142 141 t b b;
#X obj 142 269 + 1;
#X obj 595 278 symbol;
#X obj 435 278 symbol;
#X msg 595 249 \$2-\$1;
#X msg 435 249 \$2-\$1;
#X obj 435 220 list \$1;
#X obj 595 220 list \$1;
#X obj 142 44 inlet;
#X obj 35 84 loadbang;
#X obj 35 113 f \$2;
#X msg 35 142 seed \$1;
#X msg 388 329 1 1000;
#X msg 548 329 0 1000;
#X obj 142 211 random 12;
#X obj 142 112 metro \$3;
#X connect 0 0 25 0;
#X connect 1 0 8 0;
#X connect 2 0 23 0;
#X connect 2 1 17 0;
#X connect 4 0 2 0;
#X connect 5 0 22 0;
#X connect 5 1 16 0;
#X connect 7 0 5 0;
#X connect 10 0 24 0;
#X connect 10 1 1 0;
#X connect 11 0 1 1;
#X connect 11 0 9 0;
#X connect 12 0 3 1;
#X connect 13 0 6 1;
#X connect 14 0 12 0;
#X connect 15 0 13 0;
#X connect 16 0 15 0;
#X connect 17 0 14 0;
#X connect 18 0 0 0;
#X connect 19 0 20 0;
#X connect 20 0 21 0;
#X connect 21 0 24 0;
#X connect 22 0 6 0;
#X connect 23 0 3 0;
#X connect 24 0 11 0;
#X connect 25 0 10 0;
