#N canvas 689 228 1019 628 16;
#X obj 447 398 vorpal_bus \$0;
#X obj 72 13 vorpal_parameter \$0 contact;
#X obj 622 313 loadbang;
#X obj 362 58 catch~ \$0-out;
#X obj 80 381 loadbang;
#X obj 72 187 i 0;
#X obj 99 80 random 3;
#X obj 99 114 s \$0-effect;
#N canvas 340 346 558 401 delay 0;
#X obj 46 132 *~;
#X obj 47 9 inlet~ signal;
#X obj 73 39 r \$0-effect;
#X obj 73 67 route 0;
#X msg 73 95 1;
#X msg 143 94 0;
#X obj 88 228 delwrite~ delay-\$0 1024;
#X obj 45 288 +~;
#X obj 73 165 delread~ delay-\$0 500;
#X obj 88 194 *~ 0.2;
#X obj 317 50 inlet dist;
#X obj 45 316 outlet~;
#X obj 317 78 * 0.3;
#X connect 0 0 7 0;
#X connect 0 0 6 0;
#X connect 1 0 0 0;
#X connect 2 0 3 0;
#X connect 3 0 4 0;
#X connect 3 1 5 0;
#X connect 4 0 0 1;
#X connect 5 0 0 1;
#X connect 7 0 11 0;
#X connect 8 0 7 1;
#X connect 8 0 9 0;
#X connect 9 0 6 0;
#X connect 10 0 12 0;
#X connect 12 0 9 1;
#X restore 362 203 pd delay;
#N canvas 525 367 558 401 rev 0;
#X obj 46 132 *~;
#X obj 47 9 inlet~ signal;
#X obj 73 39 r \$0-effect;
#X msg 73 95 1;
#X msg 143 94 0;
#X obj 187 92 inlet dist;
#X obj 73 67 route 1;
#X obj 47 207 rev2~ 80 80 3000 80;
#X obj 187 120 * 2500;
#X obj 187 148 + 500;
#X obj 47 235 outlet~;
#X connect 0 0 7 0;
#X connect 1 0 0 0;
#X connect 2 0 6 0;
#X connect 3 0 0 1;
#X connect 4 0 0 1;
#X connect 5 0 8 0;
#X connect 6 0 3 0;
#X connect 6 1 4 0;
#X connect 7 0 10 0;
#X connect 8 0 9 0;
#X connect 9 0 7 3;
#X restore 472 203 pd rev;
#X obj 99 152 r \$0-voice;
#X obj 80 515 s \$0-voice;
#X obj 104 428 vorpal_parameter \$0 reset;
#X obj 547 88 vorpal_parameter \$0 dist;
#N canvas 3 98 1299 902 voices 0;
#X obj 223 196 vorpal_sample samples/contact_can_you_dance_to_itV2.wav
;
#X obj 72 761 vorpal_sample samples/contact_doodle.wav;
#X obj 197 291 vorpal_sample samples/contact_feedback_recordings.wav
;
#X obj 172 387 vorpal_sample samples/contact_heaven_is_dependent.wav
;
#X obj 147 476 vorpal_sample samples/contact_imagine_the_music.wav
;
#X obj 122 568 vorpal_sample samples/contact_is_the_tuning.wav;
#X obj 97 662 vorpal_sample samples/contact_let_inspiration_sneak_up.wav
;
#X obj 223 256 throw~ \$0-out;
#X obj 148 533 throw~ \$0-out;
#X obj 96 723 throw~ \$0-out;
#X obj 72 38 inlet voice;
#X msg 72 135 \$1 start;
#X obj 196 353 throw~ \$0-out2;
#X obj 172 445 throw~ \$0-out2;
#X obj 121 627 throw~ \$0-out2;
#X obj 71 825 throw~ \$0-out2;
#X obj 792 300 vorpal_sample samples/contact_lowest_common.wav;
#X obj 790 408 vorpal_sample samples/contact_make_friends.wav;
#X obj 804 523 vorpal_sample samples/contact_pretend.wav;
#X obj 795 696 vorpal_sample samples/contact_something_old.wav;
#X obj 792 355 throw~ \$0-out;
#X obj 790 463 throw~ \$0-out;
#X obj 804 578 throw~ \$0-out;
#X obj 795 751 throw~ \$0-out;
#X obj 72 165 route 0 1 2 3 4 5 6 7 8 9 10;
#X obj 660 69 vorpal_parameter \$0 reset;
#X msg 660 110 stop;
#X connect 0 0 7 0;
#X connect 1 0 15 0;
#X connect 2 0 12 0;
#X connect 3 0 13 0;
#X connect 4 0 8 0;
#X connect 5 0 14 0;
#X connect 6 0 9 0;
#X connect 10 0 11 0;
#X connect 11 0 24 0;
#X connect 16 0 20 0;
#X connect 17 0 21 0;
#X connect 18 0 22 0;
#X connect 19 0 23 0;
#X connect 24 0 6 0;
#X connect 24 1 6 0;
#X connect 24 2 4 0;
#X connect 24 3 4 0;
#X connect 24 4 4 0;
#X connect 24 5 0 0;
#X connect 24 6 0 0;
#X connect 24 7 16 0;
#X connect 24 8 17 0;
#X connect 24 9 18 0;
#X connect 24 10 19 0;
#X connect 25 0 26 0;
#X connect 26 0 0 0;
#X connect 26 0 4 0;
#X connect 26 0 6 0;
#X connect 26 0 16 0;
#X connect 26 0 17 0;
#X connect 26 0 18 0;
#X connect 26 0 19 0;
#X restore 72 225 pd voices;
#X obj 232 258 catch~ \$0-out2;
#N canvas 525 370 558 401 ring 0;
#X obj 46 132 *~;
#X obj 47 9 inlet~ signal;
#X obj 73 39 r \$0-effect;
#X msg 73 95 1;
#X msg 143 94 0;
#X obj 71 172 inlet dist;
#X obj 73 67 route 1;
#X obj 45 321 *~;
#X obj 71 245 * 10;
#X obj 71 278 osc~ 10;
#X obj 71 200 * 20;
#X obj 45 349 outlet~;
#X connect 0 0 7 0;
#X connect 1 0 0 0;
#X connect 2 0 6 0;
#X connect 3 0 0 1;
#X connect 4 0 0 1;
#X connect 5 0 10 0;
#X connect 6 0 3 0;
#X connect 6 1 4 0;
#X connect 7 0 11 0;
#X connect 8 0 9 0;
#X connect 9 0 7 1;
#X connect 10 0 8 0;
#X restore 562 203 pd ring;
#X obj 80 487 random 11;
#X obj 771 313 explo;
#X msg 758 256 0.5;
#X msg 817 252 0.5;
#X obj 733 168 vorpal_parameter \$0 die;
#X obj 733 209 t b b;
#X obj 771 342 *~ 1.5;
#X msg 628 350 0.4;
#X connect 1 0 5 0;
#X connect 1 0 6 0;
#X connect 2 0 24 0;
#X connect 3 0 8 0;
#X connect 3 0 9 0;
#X connect 3 0 16 0;
#X connect 4 0 17 0;
#X connect 5 0 14 0;
#X connect 6 0 7 0;
#X connect 8 0 0 0;
#X connect 9 0 0 0;
#X connect 10 0 5 1;
#X connect 12 0 17 0;
#X connect 13 0 8 1;
#X connect 13 0 9 1;
#X connect 13 0 16 1;
#X connect 15 0 0 0;
#X connect 16 0 0 0;
#X connect 17 0 11 0;
#X connect 18 0 23 0;
#X connect 19 0 18 0;
#X connect 20 0 18 1;
#X connect 21 0 22 0;
#X connect 22 0 19 0;
#X connect 22 1 20 0;
#X connect 23 0 0 0;
#X connect 24 0 0 1;
