#N canvas 534 274 868 615 16;
#X obj 174 116 metro 1000;
#X obj 174 144 random 4;
#X msg 174 172 \$1 start;
#X obj 174 200 route 0 1 2 3;
#X obj 174 511 vorpal_sample samples/Dana_fx01.wav;
#X obj 174 566 throw~ \$0-out;
#X obj 459 103 catch~ \$0-out;
#X obj 653 72 loadbang;
#X msg 653 100 0.5;
#X obj 205 425 vorpal_sample samples/Dana_fx02.wav;
#X obj 205 480 throw~ \$0-out;
#X obj 237 340 vorpal_sample samples/Dana_fx03.wav;
#X obj 237 395 throw~ \$0-out;
#X obj 269 252 vorpal_sample samples/Dana_fx04.wav;
#X obj 269 307 throw~ \$0-out;
#X obj 174 63 vorpal_parameter \$0 start;
#X obj 459 131 vorpal_bus \$0;
#X connect 0 0 1 0;
#X connect 1 0 2 0;
#X connect 2 0 3 0;
#X connect 3 0 4 0;
#X connect 3 1 9 0;
#X connect 3 2 11 0;
#X connect 3 3 13 0;
#X connect 4 0 5 0;
#X connect 6 0 16 0;
#X connect 7 0 8 0;
#X connect 8 0 16 1;
#X connect 9 0 10 0;
#X connect 11 0 12 0;
#X connect 13 0 14 0;
#X connect 15 0 0 0;
