#N canvas 41 0 1317 670 16;
#X msg 72 128 start;
#X obj 72 220 throw~ \$0-out;
#X obj 72 85 vorpal_parameter \$0 intro;
#X obj 826 577 catch~ \$0-out;
#X obj 826 605 vorpal_bus \$0;
#X obj 687 102 vorpal_parameter \$0 clear;
#X obj 687 173 route 1 2 3;
#X msg 687 143 \$1 start;
#X obj 758 303 throw~ \$0-out;
#X obj 722 400 throw~ \$0-out;
#X obj 686 499 throw~ \$0-out;
#X obj 122 302 vorpal_parameter \$0 tutorial;
#X obj 122 343 t b b;
#X msg 122 371 0;
#X obj 169 420 spigot 1;
#X msg 169 508 start;
#X obj 169 591 throw~ \$0-out;
#X obj 72 160 vorpal_sample samples/01_NV_EN_solve3.wav;
#X obj 169 536 vorpal_sample samples/05_NV_EN_listem.wav;
#X obj 758 244 vorpal_sample samples/04_NV_EN_the_gate_is_open.wav;
#X obj 722 337 vorpal_sample samples/03_NV_EN_1chnleft.wav;
#X obj 687 437 vorpal_sample samples/02_NV_EN_2chnleft.wav;
#X obj 276 226 dac~;
#X obj 441 280 print;
#X obj 440 248 t b;
#X connect 0 0 17 0;
#X connect 0 0 24 0;
#X connect 2 0 0 0;
#X connect 3 0 4 0;
#X connect 5 0 7 0;
#X connect 6 0 21 0;
#X connect 6 1 20 0;
#X connect 6 2 19 0;
#X connect 7 0 6 0;
#X connect 11 0 12 0;
#X connect 12 0 13 0;
#X connect 12 1 14 0;
#X connect 13 0 14 1;
#X connect 14 0 15 0;
#X connect 15 0 18 0;
#X connect 17 0 1 0;
#X connect 17 0 22 0;
#X connect 17 0 22 1;
#X connect 18 0 16 0;
#X connect 19 0 8 0;
#X connect 20 0 9 0;
#X connect 21 0 10 0;
#X connect 24 0 23 0;
