#N canvas 1146 468 403 315 16;
#X obj 30 217 vorpal_bus \$0;
#X obj 30 181 catch~ \$0-out;
#N canvas 582 159 1007 655 mid 0;
#X obj 548 110 throw~ \$0-out;
#X obj 548 55 vorpal_sample samples/Passo_04.wav;
#X msg 55 74 bang;
#X obj 55 170 i \$0;
#X obj 55 223 list prepend;
#X msg 55 279 \; \$2-step-\$1 start \;;
#X obj 548 26 r \$0-step-0;
#X obj 548 240 throw~ \$0-out;
#X obj 548 156 r \$0-step-1;
#X obj 548 185 vorpal_sample samples/Passo_06.wav;
#X obj 55 22 vorpal_parameter \$0 mid;
#X obj 55 102 t b b;
#X obj 172 158 tgl 24 0 empty empty empty 17 7 0 10 -262144 -1 -1 0
1;
#X connect 1 0 0 0;
#X connect 2 0 11 0;
#X connect 3 0 4 0;
#X connect 4 0 5 0;
#X connect 6 0 1 0;
#X connect 8 0 9 0;
#X connect 9 0 7 0;
#X connect 10 0 2 0;
#X connect 11 0 3 0;
#X connect 11 1 12 0;
#X connect 12 0 4 1;
#X restore 46 98 pd mid;
#N canvas 582 156 1007 655 start 0;
#X obj 548 110 throw~ \$0-out;
#X msg 55 74 bang;
#X obj 55 170 i \$0;
#X obj 55 243 list prepend;
#X msg 55 279 \; \$2-step-\$1 start \;;
#X obj 55 102 t b b b;
#X msg 325 545 \; pd audio-dialog 0 0 0 0 2 0 0 0 0 0 0 0 2 0 0 0 \$1
25 -1 64;
#X obj 325 254 / 10;
#X obj 325 282 + 0.5;
#X obj 325 310 * 44100;
#X obj 325 226 random 10;
#X obj 548 240 throw~ \$0-out;
#X obj 172 215 + 2;
#X obj 548 55 vorpal_sample samples/Passo_03.wav;
#X obj 548 185 vorpal_sample samples/Passo_05.wav;
#X obj 548 370 throw~ \$0-out;
#X obj 548 315 vorpal_sample samples/Passo_07.wav;
#X obj 172 187 random 3;
#X obj 548 26 r \$0-step-2;
#X obj 548 156 r \$0-step-3;
#X obj 548 286 r \$0-step-4;
#X obj 55 29 vorpal_parameter \$0 start;
#X connect 1 0 5 0;
#X connect 2 0 3 0;
#X connect 3 0 4 0;
#X connect 5 0 2 0;
#X connect 5 1 17 0;
#X connect 5 2 10 0;
#X connect 7 0 8 0;
#X connect 8 0 9 0;
#X connect 10 0 7 0;
#X connect 12 0 3 1;
#X connect 13 0 0 0;
#X connect 14 0 11 0;
#X connect 16 0 15 0;
#X connect 17 0 12 0;
#X connect 18 0 13 0;
#X connect 19 0 14 0;
#X connect 20 0 16 0;
#X connect 21 0 1 0;
#X restore 46 58 pd start;
#N canvas 761 150 1007 655 turn 0;
#X obj 548 110 throw~ \$0-out;
#X msg 55 74 bang;
#X obj 55 170 i \$0;
#X obj 55 243 list prepend;
#X msg 55 279 \; \$2-step-\$1 start \;;
#X obj 55 102 t b b b;
#X msg 325 545 \; pd audio-dialog 0 0 0 0 2 0 0 0 0 0 0 0 2 0 0 0 \$1
25 -1 64;
#X obj 325 254 / 10;
#X obj 325 282 + 0.5;
#X obj 325 310 * 44100;
#X obj 325 226 random 10;
#X obj 548 240 throw~ \$0-out;
#X obj 55 25 vorpal_parameter \$0 turn;
#X obj 548 55 vorpal_sample samples/Passo_Vira_01.wav;
#X obj 548 185 vorpal_sample samples/Passo_Vira_02.wav;
#X obj 548 26 r \$0-step-5;
#X obj 548 156 r \$0-step-6;
#X obj 172 215 + 5;
#X obj 172 187 random 2;
#X connect 1 0 5 0;
#X connect 2 0 3 0;
#X connect 3 0 4 0;
#X connect 5 0 2 0;
#X connect 5 1 18 0;
#X connect 5 2 10 0;
#X connect 7 0 8 0;
#X connect 8 0 9 0;
#X connect 10 0 7 0;
#X connect 12 0 1 0;
#X connect 13 0 0 0;
#X connect 14 0 11 0;
#X connect 15 0 13 0;
#X connect 16 0 14 0;
#X connect 17 0 3 1;
#X connect 18 0 17 0;
#X restore 147 59 pd turn;
#N canvas 768 139 1007 655 stop 0;
#X obj 548 110 throw~ \$0-out;
#X obj 172 157 random 2;
#X msg 55 74 bang;
#X obj 55 170 i \$0;
#X obj 55 223 list prepend;
#X msg 55 279 \; \$2-step-\$1 start \;;
#X obj 55 102 t b b b;
#X msg 325 545 \; pd audio-dialog 0 0 0 0 2 0 0 0 0 0 0 0 2 0 0 0 \$1
25 -1 64;
#X obj 325 254 / 10;
#X obj 325 282 + 0.5;
#X obj 325 310 * 44100;
#X obj 325 226 random 10;
#X obj 548 240 throw~ \$0-out;
#X obj 548 26 r \$0-step-7;
#X obj 548 156 r \$0-step-8;
#X obj 548 55 vorpal_sample samples/Passo_Parada.wav;
#X obj 548 185 vorpal_sample samples/Passo_Parada_02.wav;
#X obj 172 185 + 7;
#X obj 55 17 vorpal_parameter \$0 stop;
#X connect 1 0 17 0;
#X connect 2 0 6 0;
#X connect 3 0 4 0;
#X connect 4 0 5 0;
#X connect 6 0 3 0;
#X connect 6 1 1 0;
#X connect 6 2 11 0;
#X connect 8 0 9 0;
#X connect 9 0 10 0;
#X connect 11 0 8 0;
#X connect 13 0 15 0;
#X connect 14 0 16 0;
#X connect 15 0 0 0;
#X connect 16 0 12 0;
#X connect 17 0 4 1;
#X connect 18 0 2 0;
#X restore 147 99 pd stop;
#X obj 224 157 loadbang;
#X msg 224 185 0.2;
#N canvas 238 360 715 306 teleport 0;
#X obj 85 140 vorpal_sample samples/Wdr_FX_SaidaMono.wav;
#X obj 85 53 vorpal_parameter \$0 teleport;
#X msg 85 94 start;
#X obj 85 195 throw~ \$0-out;
#X connect 0 0 3 0;
#X connect 1 0 2 0;
#X connect 2 0 0 0;
#X restore 264 52 pd teleport;
#X connect 1 0 0 0;
#X connect 6 0 7 0;
#X connect 7 0 0 1;
