#N canvas 1114 314 450 598 16;
#X obj 264 403 loadbang;
#X obj 70 140 markov-player undertale 77;
#X obj 70 479 vorpal_bus \$0;
#X msg 70 53 start;
#X obj 70 12 vorpal_parameter \$0 start;
#X obj 154 57 vorpal_parameter \$0 stop;
#X msg 154 98 stop;
#X obj 106 186 vorpal_parameter \$0 block;
#X obj 106 395 line;
#X obj 157 292 vorpal_parameter \$0 unblock;
#X msg 157 333 4000 200;
#X obj 69 428 lop~ 4000;
#X msg 106 227 100 200;
#X msg 264 439 0.25;
#X connect 0 0 13 0;
#X connect 1 0 11 0;
#X connect 3 0 1 0;
#X connect 4 0 3 0;
#X connect 5 0 6 0;
#X connect 6 0 1 0;
#X connect 7 0 12 0;
#X connect 8 0 11 1;
#X connect 9 0 10 0;
#X connect 10 0 8 0;
#X connect 11 0 2 0;
#X connect 12 0 8 0;
#X connect 13 0 2 1;
